<svg width="50" height="59" viewBox="0 0 50 59" fill="none" xmlns="http://www.w3.org/2000/svg">
    <path d="M45.3221 32.728C45.3221 31.0829 43.5802 29.8249 41.4512 29.8249C39.3223 29.8249 37.5804 31.0829 37.5804 32.728V35.6311L32.8386 33.599C33.9998 32.5345 34.774 31.1797 35.2579 29.7281L37.8707 28.3733C38.8384 27.8894 39.5158 26.9217 39.5158 25.7605V24.0186C39.5158 22.3735 38.2578 21.1154 36.6127 21.1154H36.2256L35.6449 21.6961V19.18H37.5804V16.2769C37.5804 10.2771 33.6127 4.95463 27.9032 3.30951C27.7097 1.85794 26.4517 0.793457 25.0001 0.793457H23.0647C21.6131 0.793457 20.3551 1.85794 20.1615 3.30951C14.452 4.95463 10.4844 10.2771 10.4844 16.2769V19.18H12.4198V21.6961L11.8392 21.1154H11.4521C9.80699 21.1154 8.54896 22.3735 8.54896 24.0186V25.7605C8.54896 26.825 9.12959 27.8894 10.1941 28.3733L12.8069 29.7281C13.2908 31.1797 14.0649 32.5345 15.2262 33.599L7.19416 37.0827C3.32331 38.8246 0.807251 42.5987 0.807251 46.8566V58.8563H49.1929V30.6958L45.3221 36.115V32.728ZM39.5158 44.147V35.2441C40.7738 35.7279 42.1286 35.7279 43.3867 35.2441V38.7278L39.5158 44.147ZM41.4512 31.7603C42.6125 31.7603 43.3867 32.3409 43.3867 32.728C43.3867 33.1151 42.6125 33.6957 41.4512 33.6957C40.29 33.6957 39.5158 33.1151 39.5158 32.728C39.5158 32.3409 40.29 31.7603 41.4512 31.7603ZM37.5804 40.1794L31.2902 44.8244C30.8064 45.1147 30.129 45.3083 29.5484 45.3083H26.2581L26.5484 44.147C26.6452 43.7599 27.0323 43.3729 27.5161 43.3729H28.871C30.4193 43.3729 31.8709 42.5987 32.8386 41.3407L35.9353 36.986L37.6771 37.7601V40.1794H37.5804ZM24.7098 43.6632L24.0324 46.1792L23.355 43.6632C23.0647 42.3084 21.9034 41.4374 20.5486 41.4374H19.1938C18.2261 41.4374 17.3552 40.9536 16.8713 40.1794L13.9682 36.115L16.9681 34.7602L19.7744 36.3086C22.3873 37.7601 25.484 37.7601 28.0968 36.3086L30.9031 34.7602L33.9031 36.115L30.9999 40.1794C30.4193 40.9536 29.5483 41.4374 28.6774 41.4374H27.3226C26.1614 41.4374 25.0001 42.3084 24.7098 43.6632ZM21.8066 45.3083H18.5164C17.9358 45.3083 17.2584 45.1147 16.7745 44.7277L8.35542 38.6311L12.1295 36.986L15.2262 41.3407C16.0971 42.5987 17.6455 43.3729 19.1938 43.3729H20.5486C21.0325 43.3729 21.4196 43.6632 21.5163 44.147L21.8066 45.3083ZM36.9997 23.1476C37.3868 23.2444 37.5804 23.6315 37.5804 24.0186V25.7605C37.5804 26.1476 37.3868 26.4379 36.9997 26.6314L35.6449 27.3088V24.5024L36.9997 23.1476ZM12.6134 17.2446C13.0004 16.0833 14.0649 15.3092 15.323 15.3092H32.7418C33.9998 15.3092 35.0643 16.0833 35.4514 17.2446H12.6134ZM20.1615 5.34171V11.4383H22.097V3.6966C22.097 3.11597 22.484 2.72888 23.0647 2.72888H25.0001C25.5807 2.72888 25.9678 3.11597 25.9678 3.6966V11.4383H27.9032V5.34171C31.8709 6.69651 34.774 10.0835 35.4514 14.2447C34.6772 13.664 33.7095 13.3737 32.7418 13.3737H15.323C14.3552 13.3737 13.3875 13.664 12.6134 14.2447C13.2908 10.0835 16.1939 6.69651 20.1615 5.34171ZM11.065 26.6314C10.7747 26.4379 10.4844 26.1476 10.4844 25.7605V24.0186C10.4844 23.6315 10.7747 23.2444 11.065 23.1476L12.4198 24.5024V27.3088L11.065 26.6314ZM14.3552 27.212V19.18H33.7095V27.212C33.7095 29.7281 32.3547 31.9538 30.2258 33.1151L27.3226 34.6634C25.2904 35.7279 22.8711 35.7279 20.8389 34.6634L17.9358 33.1151C15.71 31.9538 14.3552 29.6313 14.3552 27.212ZM2.74268 46.7599C2.74268 43.8567 4.19425 41.2439 6.51676 39.5988L15.71 46.276C16.581 46.8566 17.5487 47.2437 18.5164 47.2437H23.0647V56.9209H20.1615V49.1791H13.194L12.4198 46.0825L10.4844 46.4695L11.1618 49.1791H9.51667V56.9209H2.74268V46.7599ZM18.2261 51.1146V53.05H11.4521V51.1146H18.2261ZM11.4521 54.9854H18.2261V56.9209H11.4521V54.9854ZM25.0001 56.9209V47.2437H29.5484C30.6128 47.2437 31.5805 46.9534 32.3547 46.276L37.5804 42.5019V46.7599L30.3225 56.9209H25.0001ZM47.2575 36.6956V56.9209H32.7418L45.3221 39.502V39.4052L47.2575 36.6956Z" fill="black"/>
    <path d="M45.3221 54.9854V42.1148L36.7094 54.9854H45.3221ZM43.3867 53.05H40.3868L43.3867 48.5017V53.05Z" fill="black"/>
</svg>
