<svg width="61" height="62" viewBox="0 0 61 62" fill="none" xmlns="http://www.w3.org/2000/svg">
    <path d="M44.892 29.8475C44.8931 28.8592 44.4421 27.9252 43.668 27.3111C44.4844 26.3492 44.6676 25.0008 44.1376 23.8562C43.6071 22.7111 42.4599 21.9788 41.1987 21.9799H34.0025L34.2997 21.1934C34.7678 19.9611 35.0067 18.654 35.0057 17.336V17.2188C35.0052 16.2167 34.599 15.2573 33.8791 14.5597C33.1598 13.862 32.1886 13.4853 31.1869 13.5152C29.1594 13.623 27.5762 15.3074 27.5937 17.3375C27.5937 18.2989 26.2427 20.5081 25.1482 21.9814H17.0324C16.5215 21.9814 16.1076 22.3953 16.1076 22.9062V41.4161C16.1076 41.927 16.5215 42.3409 17.0324 42.3409H39.7507C40.919 42.3414 41.997 41.7124 42.5714 40.6952C43.1452 39.6776 43.1272 38.4298 42.5229 37.4297C43.4518 37.0138 44.1309 36.1845 44.3559 35.1916C44.5814 34.1987 44.3259 33.1579 43.6675 32.3818C44.441 31.7682 44.892 30.8347 44.892 29.8475ZM17.9571 23.8314H24.6801V40.4914H17.9571V23.8314ZM41.6534 31.2367H41.1982C40.6873 31.2367 40.2735 31.6505 40.2735 32.1614C40.2735 32.6723 40.6873 33.0862 41.1982 33.0862C41.965 33.0862 42.5869 33.708 42.5869 34.4753C42.5869 35.2422 41.965 35.864 41.1982 35.864H39.7507C39.2398 35.864 38.8259 36.2784 38.8259 36.7888C38.8259 37.2997 39.2398 37.7135 39.7507 37.7135C40.5175 37.7135 41.1394 38.3354 41.1394 39.1027C41.1394 39.8696 40.5175 40.4914 39.7507 40.4914H26.5296V23.2194C27.3135 22.1827 29.4432 19.1927 29.4432 17.338C29.419 16.306 30.2101 15.4369 31.2396 15.3637C31.7422 15.3482 32.2299 15.537 32.5911 15.8869C32.9518 16.2368 33.1557 16.7183 33.1557 17.2209V17.338C33.1567 18.4321 32.958 19.5173 32.5699 20.5401L31.799 22.581C31.6916 22.8654 31.7303 23.1838 31.9032 23.4341C32.0756 23.6838 32.3599 23.833 32.6639 23.8335H41.1982C41.965 23.8335 42.5869 24.4553 42.5869 25.2222C42.5869 25.9895 41.965 26.6114 41.1982 26.6114C40.6873 26.6114 40.2735 27.0252 40.2735 27.5361C40.2735 28.047 40.6873 28.4609 41.1982 28.4609H41.6534C42.4207 28.4609 43.0425 29.0827 43.0425 29.85C43.0425 30.6174 42.4207 31.2392 41.6534 31.2392V31.2367ZM20.6818 35.1292C19.3525 35.1292 18.2755 36.2067 18.2755 37.5355C18.2755 38.8648 19.3525 39.9418 20.6818 39.9418C22.0107 39.9418 23.0882 38.8648 23.0882 37.5355C23.0866 36.2072 22.0101 35.1307 20.6818 35.1292ZM20.6818 38.0918C20.3743 38.0918 20.1245 37.8425 20.125 37.535C20.125 37.2274 20.3743 36.9776 20.6818 36.9782C20.9899 36.9782 21.2392 37.2279 21.2386 37.5355C21.2381 37.8431 20.9889 38.0918 20.6818 38.0918ZM59.1617 28.6229C60.0158 27.2817 60.297 25.6546 59.943 24.1044C59.5895 22.5547 58.6302 21.2104 57.2792 20.3724C55.9292 19.5302 55.1851 17.9857 55.3683 16.405C55.5556 14.8265 55.103 13.2381 54.1117 11.9954C53.1204 10.7523 51.6729 9.95757 50.0922 9.78831C48.5105 9.61595 47.1704 8.54826 46.6492 7.04502C46.1326 5.54127 45.036 4.30689 43.6035 3.61694C42.1709 2.92751 40.5217 2.83926 39.0241 3.37337C37.524 3.90335 35.8525 3.52199 34.7311 2.3934C33.6134 1.26275 32.0895 0.626465 30.4996 0.626465C28.9096 0.626465 27.3858 1.26275 26.268 2.3934C25.1467 3.5225 23.4747 3.90386 21.975 3.37337C20.477 2.83978 18.8287 2.92802 17.3962 3.61746C15.9642 4.30741 14.8671 5.54178 14.3505 7.04502C13.8303 8.54877 12.4896 9.6175 10.908 9.78986C9.3268 9.95912 7.8793 10.7538 6.88849 11.997C5.89717 13.2401 5.4446 14.828 5.63141 16.4071C5.81512 17.9872 5.07098 19.5317 3.72153 20.3739C2.37053 21.212 1.4112 22.5558 1.05771 24.1054C0.703703 25.6551 0.984947 27.2817 1.83797 28.6229C2.68892 29.9672 2.68892 31.6815 1.83797 33.0258C0.984431 34.3675 0.703187 35.9946 1.05668 37.5443C1.41068 39.0945 2.37001 40.4388 3.7205 41.2768C5.07098 42.119 5.8146 43.6635 5.63141 45.2436C5.4446 46.8227 5.89717 48.4106 6.88849 49.6538C7.8793 50.8969 9.3268 51.6916 10.908 51.8609C12.4891 52.0327 13.8298 53.1009 14.3505 54.6036C14.8671 56.1074 15.9642 57.3418 17.3967 58.0317C18.8292 58.7217 20.478 58.8094 21.9761 58.2758C23.4757 57.7448 25.1477 58.1262 26.269 59.2558C27.3868 60.3864 28.9107 61.0227 30.5006 61.0227C32.0905 61.0227 33.6144 60.3864 34.7322 59.2558C35.8535 58.1267 37.525 57.7453 39.0251 58.2758C40.5227 58.8094 42.1715 58.7212 43.6035 58.0312C45.036 57.3418 46.1326 56.1074 46.6492 54.6036C47.1699 53.1004 48.5105 52.0317 50.0922 51.8593C51.6729 51.6901 53.1204 50.8954 54.1117 49.6522C55.103 48.4091 55.5556 46.8212 55.3683 45.2421C55.1851 43.662 55.9287 42.1174 57.2787 41.2753C58.6297 40.4372 59.589 39.0929 59.943 37.5432C60.297 35.993 60.0158 34.3659 59.1617 33.0242C58.3118 31.6805 58.3118 29.9672 59.1617 28.6229ZM57.6017 34.0187C58.19 34.9434 58.384 36.0648 58.1399 37.133C57.8964 38.2012 57.2348 39.1275 56.3038 39.7055C54.3449 40.9274 53.2654 43.1686 53.5317 45.4619C53.6607 46.5503 53.3485 47.6448 52.6652 48.5014C51.982 49.3581 50.9845 49.9056 49.8951 50.0222C47.5997 50.273 45.6548 51.8237 44.8998 54.0056C44.5437 55.0418 43.7877 55.8927 42.8005 56.368C41.8133 56.8433 40.677 56.9042 39.6449 56.5362C37.4682 55.7658 35.0428 56.3195 33.4157 57.9579C32.6458 58.7372 31.5957 59.1758 30.4996 59.1758C29.404 59.1758 28.3539 58.7372 27.5834 57.9579C25.9574 56.3185 23.5309 55.7647 21.3542 56.5362C20.3222 56.9042 19.1858 56.8433 18.1986 56.368C17.2114 55.8927 16.4554 55.0418 16.0999 54.0056C15.3449 51.8237 13.3994 50.273 11.1046 50.0222C10.0147 49.9056 9.01717 49.3581 8.33393 48.5014C7.65069 47.6448 7.339 46.5503 7.46801 45.4619C7.73429 43.1686 6.65524 40.9269 4.69582 39.7055C3.76436 39.1275 3.10331 38.2012 2.85922 37.133C2.61565 36.0648 2.80968 34.9434 3.39797 34.0187C4.63286 32.0685 4.63286 29.5807 3.39797 27.63C2.80968 26.7058 2.61565 25.5844 2.85922 24.5157C3.10331 23.4475 3.76436 22.5212 4.69582 21.9437C6.65472 20.7217 7.73429 18.4806 7.46853 16.1873C7.33951 15.0989 7.65121 14.0044 8.33445 13.1478C9.01769 12.2906 10.0152 11.7431 11.1051 11.6265C13.3999 11.3762 15.3454 9.82495 16.1004 7.64312C16.456 6.6069 17.212 5.75646 18.1991 5.28067C19.1863 4.80539 20.3227 4.74501 21.3548 5.11295C23.5314 5.88289 25.9574 5.32969 27.5839 3.69125C28.3544 2.91202 29.4045 2.47339 30.5001 2.47339C31.5962 2.47339 32.6463 2.91202 33.4163 3.69125C35.0433 5.32969 37.4688 5.88289 39.6454 5.11295C40.6775 4.74501 41.8138 4.80539 42.801 5.28067C43.7882 5.75646 44.5442 6.6069 44.9003 7.64312C45.6553 9.82495 47.6002 11.3762 49.8956 11.6265C50.985 11.7431 51.9825 12.2906 52.6657 13.1478C53.349 14.0044 53.6612 15.0989 53.5322 16.1873C53.2654 18.4806 54.3449 20.7223 56.3044 21.9437C57.2353 22.5212 57.8969 23.4475 58.1404 24.5157C58.3845 25.5844 58.1905 26.7058 57.6022 27.63C56.3668 29.5807 56.3668 32.068 57.6017 34.0187ZM30.5001 8.32894C18.0758 8.32894 8.0047 18.4011 8.0047 30.8249C8.0047 43.2486 18.0768 53.3202 30.5006 53.3202C42.9249 53.3202 52.996 43.2486 52.996 30.8243C52.9821 18.4062 42.9182 8.34287 30.5001 8.32894ZM30.5001 51.4713C19.0976 51.4707 9.8542 42.2274 9.8542 30.8249C9.8542 19.4223 19.0976 10.179 30.5001 10.179C41.9026 10.1784 51.1465 19.4218 51.1465 30.8243C51.1336 42.2217 41.8974 51.4578 30.5001 51.4707V51.4713Z" fill="black"/>
</svg>
