<svg width="58" height="59" viewBox="0 0 58 59" fill="none" xmlns="http://www.w3.org/2000/svg">
    <path d="M15.7338 53.0405H13.8386V54.9357H15.7338V53.0405Z" fill="black"/>
    <path d="M35.6331 41.6695H19.5241V27.4557C19.5241 27.2044 19.4243 26.9634 19.2466 26.7857C19.0689 26.608 18.8279 26.5082 18.5766 26.5082H1.52004C1.26873 26.5082 1.02771 26.608 0.849999 26.7857C0.672292 26.9634 0.572458 27.2044 0.572458 27.4557V57.7784C0.572458 58.0298 0.672292 58.2708 0.849999 58.4485C1.02771 58.6262 1.26873 58.726 1.52004 58.726H35.6331C35.8844 58.726 36.1254 58.6262 36.3031 58.4485C36.4808 58.2708 36.5807 58.0298 36.5807 57.7784V42.6171C36.5807 42.3658 36.4808 42.1247 36.3031 41.947C36.1254 41.7693 35.8844 41.6695 35.6331 41.6695ZM25.2097 43.5647H29V47.355H25.2097V43.5647ZM8.15313 28.4033H11.9435V32.1937H8.15313V28.4033ZM2.46763 28.4033H6.25797V33.1412C6.25797 33.3926 6.3578 33.6336 6.53551 33.8113C6.71321 33.989 6.95423 34.0888 7.20555 34.0888H12.8911C13.1424 34.0888 13.3834 33.989 13.5611 33.8113C13.7388 33.6336 13.8386 33.3926 13.8386 33.1412V28.4033H17.629V41.6695H2.46763V28.4033ZM8.15313 43.5647H11.9435V47.355H8.15313V43.5647ZM2.46763 43.5647H6.25797V48.3026C6.25797 48.5539 6.3578 48.7949 6.53551 48.9726C6.71321 49.1503 6.95423 49.2502 7.20555 49.2502H12.8911C13.1424 49.2502 13.3834 49.1503 13.5611 48.9726C13.7388 48.7949 13.8386 48.5539 13.8386 48.3026V43.5647H17.629V56.8309H2.46763V43.5647ZM34.6855 56.8309H19.5241V43.5647H23.3145V48.3026C23.3145 48.5539 23.4143 48.7949 23.592 48.9726C23.7697 49.1503 24.0108 49.2502 24.2621 49.2502H29.9476C30.1989 49.2502 30.4399 49.1503 30.6176 48.9726C30.7953 48.7949 30.8952 48.5539 30.8952 48.3026V43.5647H34.6855V56.8309Z" fill="black"/>
    <path d="M32.7903 53.0405H30.8952V54.9357H32.7903V53.0405Z" fill="black"/>
    <path d="M15.7338 37.8792H13.8386V39.7743H15.7338V37.8792Z" fill="black"/>
    <path d="M56.2576 13.2154C56.3304 13.2331 56.405 13.242 56.4799 13.242C56.646 13.2418 56.8091 13.1982 56.9531 13.1154C57.097 13.0326 57.2167 12.9135 57.3003 12.7701C57.3864 12.6186 57.4303 12.4468 57.4275 12.2726V8.50405C57.4275 8.29141 57.356 8.08496 57.2244 7.9179C57.0929 7.75084 56.909 7.63288 56.7023 7.58299L29.2223 0.949903C29.0762 0.914485 28.9238 0.914485 28.7777 0.949903L1.29772 7.58299C1.09102 7.63288 0.907104 7.75084 0.775558 7.9179C0.644011 8.08496 0.572476 8.29141 0.572458 8.50405V12.2675C0.569219 12.4659 0.625942 12.6607 0.735206 12.8263C0.843633 12.9858 0.998054 13.1084 1.17791 13.1779C1.35777 13.2475 1.55454 13.2605 1.74201 13.2154L3.41521 12.8116V24.613H5.31038V12.3542L29 6.636L52.6896 12.3542V56.8309H47.0041V19.8751C47.0041 19.6237 46.9043 19.3827 46.7266 19.205C46.5489 19.0273 46.3078 18.9275 46.0565 18.9275H11.9435C11.6922 18.9275 11.4511 19.0273 11.2734 19.205C11.0957 19.3827 10.9959 19.6237 10.9959 19.8751V23.6654C10.9959 23.9167 11.0957 24.1577 11.2734 24.3354C11.4511 24.5131 11.6922 24.613 11.9435 24.613H45.1089V26.5082H21.4193V28.4033H45.1089V30.2985H21.4193V32.1937H45.1089V34.0888H21.4193V35.984H45.1089V56.8309H38.4758V58.726H57.4275V56.8309H54.5848V12.8116L56.2576 13.2154ZM12.8911 22.7178V20.8226H45.1089V22.7178H12.8911ZM29 4.71371C28.9251 4.71367 28.8505 4.72258 28.7777 4.74024L2.46763 11.0908V9.25027L29 2.84578L55.5324 9.25027V11.091L29.2223 4.74024C29.1495 4.72258 29.0749 4.71367 29 4.71371Z" fill="black"/>
    <path d="M30.8952 16.0847C31.6491 16.0847 32.3722 15.7852 32.9053 15.2521C33.4384 14.719 33.7379 13.9959 33.7379 13.242C33.7379 12.488 33.4384 11.765 32.9053 11.2318C32.3722 10.6987 31.6491 10.3992 30.8952 10.3992H27.1048C26.3509 10.3992 25.6278 10.6987 25.0947 11.2318C24.5616 11.765 24.2621 12.488 24.2621 13.242C24.2621 13.9959 24.5616 14.719 25.0947 15.2521C25.6278 15.7852 26.3509 16.0847 27.1048 16.0847H30.8952ZM26.1572 13.242C26.1575 12.9907 26.2574 12.7499 26.4351 12.5722C26.6127 12.3946 26.8536 12.2947 27.1048 12.2944H30.8952C31.1465 12.2944 31.3875 12.3942 31.5652 12.5719C31.7429 12.7496 31.8427 12.9907 31.8427 13.242C31.8427 13.4933 31.7429 13.7343 31.5652 13.912C31.3875 14.0897 31.1465 14.1896 30.8952 14.1896H27.1048C26.8536 14.1893 26.6127 14.0893 26.4351 13.9117C26.2574 13.7341 26.1575 13.4932 26.1572 13.242Z" fill="black"/>
</svg>
