<svg width="53" height="54" viewBox="0 0 53 54" fill="none" xmlns="http://www.w3.org/2000/svg">
    <path d="M28.7727 15.4129L26.5 11.4075L24.2272 15.4128L19.7155 16.3365L22.8225 19.7359L22.3069 24.3122L26.5 22.4076L30.6929 24.3121L30.1773 19.7358L33.2843 16.3364L28.7727 15.4129ZM28.8444 21.7679L26.5 20.703L24.1555 21.7679L24.4437 19.2091L22.7065 17.3084L25.2292 16.7919L26.5 14.5523L27.7708 16.7919L30.2934 17.3084L28.5562 19.2091L28.8444 21.7679Z" fill="black"/>
    <path d="M41.2442 6.54501V4.99299H42.7962V0.336914H17.9638V1.88894H41.2442V3.44096H11.7557V1.88894H16.4117V0.336914H10.2037V4.99299H11.7557V6.54501H0.012085V19.4606C0.012085 21.1988 0.700252 22.7576 2.0023 23.9683C3.14717 25.0329 4.75414 25.7889 6.52696 26.0969L15.1745 27.5995C16.7899 29.5371 18.8779 31.0327 21.2017 31.9373C20.6397 32.4993 20.2917 33.2753 20.2917 34.131C20.2917 35.567 21.272 36.7779 22.5985 37.1307C22.4853 38.9619 21.8475 41.6522 19.2983 43.2241H14.3799L12.5315 46.921V53.3127H32.7082V51.7606H14.0837V47.2875L15.3393 44.7762H37.6607L38.9162 47.2875V51.7606H34.2603V53.3127H40.4683V46.9211L38.6199 43.2242H33.7016C31.1523 41.6523 30.5145 38.962 30.4013 37.1308C31.7278 36.778 32.7082 35.567 32.7082 34.1311C32.7082 33.2754 32.3601 32.4994 31.7982 31.9374C34.1219 31.0328 36.2099 29.5372 37.8253 27.5996L46.4728 26.097C48.2458 25.789 49.8526 25.033 50.9975 23.9684C52.2997 22.7574 52.9878 21.1987 52.9878 19.4605V6.54501H41.2442ZM41.2442 11.2011H48.3318V19.4606C48.3318 21.0036 45.9476 21.4624 45.6757 21.5096L40.6242 22.3874C41.0314 21.0296 41.2442 19.6134 41.2442 18.1853V11.2011ZM12.3757 22.3873L7.32419 21.5095C7.05227 21.4623 4.66816 21.0035 4.66816 19.4605V11.2011H11.7557V18.1852C11.7557 19.6133 11.9685 21.0295 12.3757 22.3873ZM1.56411 19.4605V8.09703H11.7557V9.64906H3.11613V19.4606C3.11613 21.5937 5.1527 22.7076 7.05848 23.0388L12.9939 24.0702C13.2544 24.6652 13.5542 25.2438 13.8919 25.8015L6.79288 24.5679C4.38083 24.1487 1.56411 22.5596 1.56411 19.4605ZM21.7311 43.2242C23.1516 41.712 23.9974 39.6366 24.147 37.235H28.8529C29.0024 39.6366 29.8483 41.712 31.2688 43.2242H21.7311ZM29.6041 35.683H23.3958C22.54 35.683 21.8438 34.9868 21.8438 34.131C21.8438 33.2752 22.54 32.579 23.3958 32.579H29.6041C30.4599 32.579 31.1561 33.2752 31.1561 34.131C31.1561 34.9868 30.4599 35.683 29.6041 35.683ZM29.5121 31.0269H23.4878C17.5841 29.6336 13.3078 24.247 13.3078 18.1852V4.99299H39.6922V18.1852C39.6922 24.247 35.4158 29.6336 29.5121 31.0269ZM51.4358 19.4605C51.4358 22.5596 48.6191 24.1487 46.2071 24.5677L39.1081 25.8013C39.4458 25.2436 39.7457 24.665 40.0061 24.0699L45.9415 23.0386C47.8472 22.7075 49.8838 21.5936 49.8838 19.4605V9.64906H41.2442V8.09703H51.4358V19.4605Z" fill="black"/>
    <path d="M36.5881 9.64906H38.1401V11.2011H36.5881V9.64906Z" fill="black"/>
    <path d="M36.5881 6.54501H38.1401V8.09703H36.5881V6.54501Z" fill="black"/>
    <path d="M35.0363 46.3281H36.5883V47.8802H35.0363V46.3281Z" fill="black"/>
    <path d="M22.6199 47.4924H30.38V49.0444H22.6199V47.4924Z" fill="black"/>
</svg>
