<svg width="66" height="42" viewBox="0 0 66 42" fill="none" xmlns="http://www.w3.org/2000/svg">
    <path d="M60.6072 17.7354L58.9446 11.085C59.3992 10.9884 59.7402 10.5852 59.7402 10.102V9.02975C59.7402 6.70163 57.8461 4.80764 55.5181 4.80764H47.9452V2.59589C47.9452 1.45026 47.0132 0.518311 45.8676 0.518311H7.26515C6.11952 0.518311 5.18757 1.45026 5.18757 2.59589V20.8248C5.18757 21.38 5.63762 21.8301 6.19288 21.8301C6.74801 21.8301 7.19819 21.3801 7.19819 20.8248V2.59589C7.19819 2.55889 7.22816 2.52892 7.26515 2.52892H45.8675C45.9044 2.52892 45.9344 2.55889 45.9344 2.59589V20.8251C45.9344 21.3802 46.3845 21.8304 46.9397 21.8304C47.4949 21.8304 47.945 21.3803 47.945 20.8251V19.6855H59.8037C59.8047 19.6855 59.8054 19.6857 59.8063 19.6857C59.8073 19.6857 59.8082 19.6856 59.8091 19.6856C61.2683 19.6866 62.5074 20.6444 62.933 21.9642H59.8071C59.2519 21.9642 58.8018 22.4142 58.8018 22.9695V25.114C58.8018 26.8509 60.2147 28.2639 61.9516 28.2639H63.091V32.687H60.4624C59.5989 30.1937 57.2288 28.3978 54.4456 28.3978C51.6624 28.3978 49.2922 30.1937 48.4288 32.687H47.9448V25.1139C47.9448 24.5588 47.4947 24.1086 46.9395 24.1086C46.3843 24.1086 45.9342 24.5586 45.9342 25.1139V32.6867H25.0771C24.2137 30.1935 21.8435 28.3975 19.0604 28.3975C16.2772 28.3975 13.9069 30.1935 13.0436 32.6867H7.26515C7.22816 32.6867 7.19819 32.6568 7.19819 32.6198V30.4082H11.5543C12.1095 30.4082 12.5597 29.9581 12.5597 29.4029C12.5597 28.8476 12.1096 28.3975 11.5543 28.3975H1.90381C1.34867 28.3975 0.898499 28.8476 0.898499 29.4029C0.898499 29.9581 1.34855 30.4082 1.90381 30.4082H5.1877V32.6198C5.1877 33.7654 6.11965 34.6974 7.26527 34.6974H12.6955C12.6952 34.7197 12.6937 34.7419 12.6937 34.7643C12.6937 38.2749 15.5499 41.131 19.0604 41.131C22.5708 41.131 25.427 38.2749 25.427 34.7643C25.427 34.7417 25.4255 34.7197 25.4253 34.6974H48.0807C48.0805 34.7197 48.0789 34.7419 48.0789 34.7643C48.0789 38.2749 50.9351 41.131 54.4456 41.131C57.9561 41.131 60.8122 38.2749 60.8122 34.7643C60.8122 34.7417 60.8107 34.7197 60.8105 34.6974H64.0963C64.6514 34.6974 65.1016 34.2473 65.1016 33.692V22.9692C65.1017 20.3219 63.1484 18.1223 60.6072 17.7354ZM47.9452 6.81812H55.5181C56.7376 6.81812 57.7297 7.81026 57.7297 9.02975V9.09671H47.9452V6.81812ZM47.9452 17.675V11.1072H56.8778L58.5197 17.675H47.9452ZM19.0604 39.1207C16.6584 39.1207 14.7042 37.1667 14.7042 34.7646C14.7042 32.3625 16.6584 30.4084 19.0604 30.4084C21.4623 30.4084 23.4165 32.3625 23.4165 34.7646C23.4165 37.1667 21.4623 39.1207 19.0604 39.1207ZM54.4459 39.1207C52.0439 39.1207 50.0897 37.1667 50.0897 34.7646C50.0897 32.3625 52.0439 30.4084 54.4459 30.4084C56.8478 30.4084 58.802 32.3625 58.802 34.7646C58.802 37.1667 56.8478 39.1207 54.4459 39.1207ZM63.0912 26.2533H61.9519C61.3236 26.2533 60.8125 25.7421 60.8125 25.1139V23.9745H63.0911V26.2533H63.0912Z" fill="black"/>
    <path d="M19.0604 32.687C17.9147 32.687 16.9828 33.6189 16.9828 34.7646C16.9828 35.9102 17.9147 36.8421 19.0604 36.8421C20.206 36.8421 21.1379 35.9102 21.1379 34.7646C21.1379 33.6189 20.206 32.687 19.0604 32.687Z" fill="black"/>
    <path d="M54.4459 32.687C53.3002 32.687 52.3683 33.6189 52.3683 34.7646C52.3683 35.9102 53.3002 36.8421 54.4459 36.8421C55.5915 36.8421 56.5234 35.9102 56.5234 34.7646C56.5234 33.6189 55.5915 32.687 54.4459 32.687Z" fill="black"/>
    <path d="M42.6506 28.3979H27.6386C27.0835 28.3979 26.6333 28.848 26.6333 29.4032C26.6333 29.9585 27.0834 30.4085 27.6386 30.4085H42.6506C43.2058 30.4085 43.656 29.9585 43.656 29.4032C43.656 28.848 43.2059 28.3979 42.6506 28.3979Z" fill="black"/>
    <path d="M16.9158 24.1087H4.04835C3.49322 24.1087 3.04304 24.5588 3.04304 25.114C3.04304 25.6693 3.49309 26.1193 4.04835 26.1193H16.9158C17.471 26.1193 17.9211 25.6693 17.9211 25.114C17.9211 24.5588 17.471 24.1087 16.9158 24.1087Z" fill="black"/>
    <path d="M35.8555 10.4633C35.463 10.0708 34.8264 10.0708 34.4339 10.4634L25.4941 19.4031L20.8435 14.7525C20.4509 14.3599 19.8144 14.3599 19.4219 14.7525C19.0292 15.1451 19.0292 15.7815 19.4219 16.1741L24.7833 21.5356C24.9796 21.732 25.2369 21.83 25.4941 21.83C25.7513 21.83 26.0087 21.732 26.2048 21.5356L35.8554 11.885C36.248 11.4923 36.248 10.8559 35.8555 10.4633Z" fill="black"/>
</svg>
