<svg width="364" height="71" viewBox="0 0 364 71" fill="none" xmlns="http://www.w3.org/2000/svg">
    <path d="M38.4407 26.3879L38.4405 26.3874L36.9297 22.983C36.9297 22.9828 36.9296 22.9827 36.9295 22.9825C36.3735 21.7198 34.5804 21.7199 34.0246 22.983L24.5332 44.4556C24.0649 45.5062 24.8382 46.6802 25.9853 46.6802H35.8815C37.0287 46.6802 37.802 45.5062 37.3336 44.4556L34.1313 37.2106C34.1312 37.2104 34.1311 37.2101 34.131 37.2099C34.0109 36.9349 34.0096 36.6137 34.1318 36.3245C34.132 36.324 34.1322 36.3235 34.1324 36.323L34.993 34.3682L34.9931 34.3681C35.3737 33.5031 36.6022 33.5031 36.9829 34.3681L36.983 34.3685L42.005 45.7318C42.0051 45.7321 42.0053 45.7324 42.0054 45.7327C42.2587 46.3144 42.8283 46.6802 43.458 46.6802H44.9584C46.1053 46.6802 46.8785 45.5067 46.4108 44.4563C46.4107 44.4561 46.4106 44.4558 46.4105 44.4556L38.4407 26.3879ZM70.5236 31.4795L70.5236 31.4761C70.5005 29.7771 69.1247 28.3989 67.4218 28.3989H63.5737C62.8788 25.6366 61.7929 23.0227 60.3626 20.6321L63.0761 17.9186C64.2804 16.7143 64.2804 14.7576 63.0761 13.5533L57.4895 7.96675C56.2852 6.76245 54.3286 6.76245 53.1243 7.96675L50.411 10.68C48.0299 9.24957 45.4158 8.16373 42.6439 7.46894V3.62106C42.6439 1.91875 41.2657 0.540527 39.5634 0.540527H31.6677C29.9654 0.540527 28.5871 1.91875 28.5871 3.62106V7.46911C25.8248 8.16399 23.2109 9.24991 20.8203 10.6802L18.1068 7.96675C16.9025 6.76245 14.9458 6.76245 13.7415 7.96675L8.15494 13.5533C6.95064 14.7576 6.95064 16.7143 8.15494 17.9186L10.8682 20.6318C9.43776 23.0129 8.35192 25.627 7.65713 28.3989H3.80925C2.12699 28.3989 0.75 29.7784 0.75 31.4795V39.3752C0.75 41.0775 2.12822 42.4557 3.83053 42.4557H7.67858C8.37346 45.218 9.45938 47.832 10.8897 50.2226L8.17623 52.9361C6.97192 54.1404 6.97192 56.097 8.17623 57.3013L13.7628 62.8879C14.9671 64.0922 16.9238 64.0922 18.1281 62.8879L20.8413 60.1747C23.2224 61.6051 25.8365 62.6909 28.6084 63.3857V67.2336C28.6084 68.9359 29.9866 70.3141 31.6889 70.3141H39.5846C41.287 70.3141 42.6652 68.9359 42.6652 67.2336V63.3855C45.4275 62.6907 48.0415 61.6047 50.4321 60.1744L53.1455 62.8879C54.3498 64.0922 56.3065 64.0922 57.5108 62.8879L63.0974 57.3013C64.3017 56.097 64.3017 54.1404 63.0974 52.9361L60.3842 50.2229C61.8146 47.8417 62.9004 45.2277 63.5952 42.4557H67.4431C69.1454 42.4557 70.5236 41.0775 70.5236 39.3752L70.5236 31.4795ZM35.6262 56.9703C23.7291 56.9703 14.0832 47.3243 14.0832 35.4273C14.0832 23.5303 23.7291 13.8843 35.6262 13.8843C47.5232 13.8843 57.1691 23.5303 57.1691 35.4273C57.1691 47.3243 47.5232 56.9703 35.6262 56.9703Z" fill="#FFE600" stroke="#4D4D4D" stroke-width="0.5"/>
    <path d="M95.8654 44.3979L95.7377 38.939H86.8205L84.7348 44.3979H79.1483L91.1621 12.9321H100.207L101.122 44.3872H95.8654V44.3979ZM88.6614 34.1398H95.5675L95.078 17.7632H94.9077L88.6614 34.1398Z" fill="#559C4F"/>
    <path d="M110.135 12.9321H126.725L125.916 17.7525H114.594L109.922 44.3872H104.591L110.135 12.9321Z" fill="#559C4F"/>
    <path d="M130.098 44.398H124.767L130.311 12.9429H139.483C140.76 12.9429 141.878 13.0174 142.835 13.177C143.793 13.3366 144.57 13.5175 145.176 13.7197C145.783 13.9219 146.272 14.2517 146.634 14.688C146.996 15.1243 147.262 15.518 147.422 15.8585C147.581 16.199 147.666 16.6992 147.656 17.3589C147.645 18.0187 147.613 18.5614 147.56 18.9657C147.507 19.3807 147.4 19.9873 147.262 20.796L146.432 25.5951C146.091 27.4999 145.73 28.8407 145.347 29.6281C144.591 31.203 143.218 32.2884 141.228 32.8737C139.834 33.2674 138.047 33.4696 135.855 33.4696H132.013L130.098 44.398ZM134.769 17.7527L132.854 28.6704H136.695C137.334 28.6704 137.887 28.6491 138.345 28.5959C138.802 28.5427 139.185 28.447 139.494 28.298C139.803 28.149 140.037 28.0107 140.218 27.883C140.398 27.7553 140.547 27.5425 140.664 27.2552C140.782 26.9678 140.867 26.7231 140.92 26.5316C140.973 26.34 141.026 26.0314 141.101 25.6058L141.931 20.8066C142.112 20.0086 142.176 19.3914 142.122 18.9445C142.069 18.4975 141.792 18.1889 141.303 18.0187C140.813 17.8484 139.93 17.7633 138.643 17.7633H134.769V17.7527Z" fill="#559C4F"/>
    <path d="M162.319 12.6768C163.447 12.6768 164.437 12.73 165.309 12.8364C166.171 12.9428 166.905 13.1024 167.48 13.3259C168.065 13.5493 168.555 13.7941 168.959 14.0707C169.364 14.3474 169.672 14.6773 169.874 15.071C170.076 15.4647 170.236 15.8584 170.332 16.2522C170.428 16.6459 170.47 17.1035 170.438 17.6142C170.406 18.125 170.364 18.6251 170.3 19.104C170.236 19.5828 170.151 20.1255 170.055 20.7002C170.045 20.7427 170.034 20.7746 170.034 20.7853L167.235 36.5022C167.097 37.3322 166.98 37.9494 166.895 38.3537C166.81 38.7687 166.65 39.3114 166.427 39.9925C166.203 40.6735 165.948 41.1949 165.66 41.5461C165.373 41.8972 164.969 42.3122 164.458 42.7698C163.937 43.2274 163.341 43.5679 162.66 43.7913C161.979 44.0148 161.127 44.2063 160.116 44.366C159.105 44.5256 157.967 44.6107 156.679 44.6107C155.392 44.6107 154.285 44.5256 153.327 44.366C152.37 44.2063 151.593 44.0148 150.986 43.7913C150.38 43.5679 149.89 43.2274 149.539 42.7698C149.188 42.3122 148.922 41.8972 148.762 41.5461C148.603 41.1949 148.518 40.6735 148.528 39.9925C148.539 39.3114 148.56 38.7581 148.613 38.3537C148.667 37.9387 148.762 37.3216 148.901 36.5022L151.699 20.7853C151.859 19.8489 151.997 19.1253 152.114 18.6358C152.231 18.1356 152.444 17.5185 152.731 16.7736C153.019 16.0287 153.402 15.4541 153.859 15.0604C154.317 14.6666 154.913 14.2516 155.637 13.8366C156.36 13.4216 157.286 13.1237 158.403 12.9428C159.52 12.7619 160.829 12.6768 162.319 12.6768ZM164.735 20.8066C164.894 20.0085 164.958 19.37 164.926 18.8805C164.894 18.391 164.628 18.0399 164.107 17.8164C163.585 17.5929 162.702 17.4865 161.447 17.4865C160.691 17.4865 160.053 17.5504 159.542 17.6674C159.02 17.7845 158.616 17.9228 158.339 18.0718C158.052 18.2208 157.818 18.4655 157.637 18.8167C157.456 19.1678 157.328 19.4551 157.265 19.6892C157.201 19.9233 157.126 20.2958 157.041 20.8066L154.243 36.5235C154.083 37.3216 154.019 37.96 154.051 38.4495C154.083 38.939 154.349 39.2902 154.87 39.5136C155.392 39.7371 156.275 39.8435 157.531 39.8435C158.158 39.8435 158.701 39.8116 159.159 39.7477C159.616 39.6839 159.999 39.5668 160.308 39.4072C160.617 39.2476 160.861 39.088 161.042 38.9284C161.223 38.7687 161.383 38.5453 161.5 38.2367C161.617 37.9281 161.702 37.6727 161.755 37.4599C161.808 37.2471 161.862 36.9385 161.915 36.5235L164.735 20.8066Z" fill="#559C4F"/>
    <path d="M192.178 12.9321H200.797L195.253 44.3872H189.922L194.636 17.7525H194.466L185.336 32.5969L181.388 17.7525H181.218L176.546 44.3872H171.215L176.759 12.9321H184.761L186.975 21.3812L192.178 12.9321Z" fill="#559C4F"/>
    <path d="M222.314 17.7527H210.992L209.502 26.2655H220.334L219.504 31.0647H208.693L207.161 39.5988H218.419L217.589 44.398H201L206.544 12.9429H223.133L222.314 17.7527Z" fill="#559C4F"/>
    <path d="M248.438 12.9321L239.542 28.6703L242.894 44.3872H237.52L234.679 31.0539H234.508L226.964 44.3872H220.93L229.848 28.6703L226.474 12.9321H231.848L234.689 26.2654H234.881L242.425 12.9321H248.438Z" fill="#559C4F"/>
    <path d="M261.452 44.398L261.324 38.9391H252.407L250.321 44.398H244.734L256.738 12.9429H265.783L266.698 44.398H261.452ZM254.237 34.14H261.143L260.654 17.7633H260.483L254.237 34.14Z" fill="#559C4F"/>
    <path d="M288.746 12.9321H294.056L288.512 44.3872H283.181L285.543 31.0539H277.871L275.509 44.3872H270.177L275.721 12.9321H281.053L278.69 26.2654H286.384L288.746 12.9321Z" fill="#559C4F"/>
    <path d="M310.177 12.9321H319.903L314.359 44.3872H309.028L313.763 17.7525H313.572L304.016 44.3872H294.269L299.813 12.9321H305.144L300.43 39.5881H300.6L310.177 12.9321Z" fill="#559C4F"/>
    <path d="M345.751 12.9321L336.855 28.6703L340.207 44.3872H334.833L331.992 31.0539H327.81L325.447 44.3872H320.116L325.66 12.9321H330.991L328.629 26.2654H332.172L339.738 12.9321H345.751Z" fill="#559C4F"/>
    <path d="M358.754 44.398L358.626 38.9391H349.709L347.623 44.398H342.037L354.04 12.9429H363.085L364 44.398H358.754ZM351.55 34.14H358.456L357.966 17.7633H357.796L351.55 34.14Z" fill="#559C4F"/>
    <path d="M84.9583 61.2536H86.3842V62.1368C86.3842 62.4135 86.3736 62.6263 86.3629 62.7753C86.3523 62.9243 86.3204 63.1158 86.2671 63.3605C86.2139 63.6053 86.1288 63.7968 86.0011 63.9245C85.8734 64.0522 85.6925 64.1905 85.4797 64.3395C85.2669 64.4885 84.9796 64.5949 84.6178 64.6481C84.256 64.712 83.8303 64.7439 83.3408 64.7439C82.8514 64.7439 82.4257 64.712 82.0639 64.6481C81.7021 64.5843 81.4148 64.4779 81.202 64.3395C80.9892 64.1905 80.8189 64.0522 80.6806 63.9245C80.5529 63.7968 80.4571 63.6053 80.4145 63.3605C80.372 63.1158 80.3294 62.9243 80.3188 62.7753C80.3081 62.6263 80.2975 62.4135 80.2975 62.1368V57.1461C80.2975 56.8695 80.3081 56.6566 80.3188 56.5077C80.3294 56.3587 80.3613 56.1672 80.4145 55.9224C80.4677 55.6777 80.5529 55.4861 80.6806 55.3584C80.8083 55.2307 80.9892 55.0924 81.202 54.9434C81.4148 54.7945 81.7021 54.688 82.0639 54.6348C82.4257 54.571 82.8514 54.5391 83.3408 54.5391C83.8303 54.5391 84.256 54.571 84.6178 54.6348C84.9796 54.6987 85.2669 54.8051 85.4797 54.9434C85.6925 55.0924 85.8628 55.2307 86.0011 55.3584C86.1395 55.4861 86.2246 55.6777 86.2671 55.9224C86.3097 56.1672 86.3523 56.3587 86.3629 56.5077C86.3736 56.6566 86.3842 56.8695 86.3842 57.1461V58.0293H84.9583V57.1461C84.9583 56.9865 84.9583 56.8695 84.9477 56.795C84.937 56.7205 84.9264 56.6141 84.8944 56.497C84.8625 56.38 84.82 56.2842 84.7455 56.231C84.6816 56.1672 84.5859 56.1033 84.4688 56.0395C84.3518 55.9756 84.2028 55.9224 84.0112 55.9011C83.8197 55.8798 83.5962 55.8586 83.3408 55.8586C83.1174 55.8586 82.9152 55.8692 82.7449 55.9011C82.5747 55.933 82.4363 55.9543 82.3193 55.9863C82.2129 56.0182 82.1171 56.0714 82.032 56.1459C81.9469 56.2204 81.8937 56.2842 81.8617 56.3374C81.8298 56.3906 81.7979 56.4757 81.7766 56.5822C81.7553 56.6886 81.7447 56.7843 81.7447 56.8482C81.7447 56.912 81.7447 57.0184 81.7447 57.1461V62.1368C81.7447 62.2751 81.7447 62.3709 81.7447 62.4348C81.7447 62.4986 81.7553 62.5944 81.7766 62.7008C81.7979 62.8072 81.8298 62.8923 81.8617 62.9455C81.8937 62.9987 81.9575 63.0626 82.032 63.1371C82.1065 63.2116 82.2022 63.2648 82.3193 63.2967C82.4257 63.3286 82.5747 63.3605 82.7449 63.3818C82.9152 63.4031 83.1174 63.4244 83.3408 63.4244C83.6069 63.4244 83.8303 63.4137 84.0112 63.3818C84.2028 63.3605 84.3518 63.3073 84.4688 63.2435C84.5859 63.1796 84.6816 63.1158 84.7455 63.0519C84.8093 62.9881 84.8625 62.903 84.8944 62.7859C84.9264 62.6689 84.937 62.5731 84.9477 62.488C84.9583 62.4135 84.9583 62.2964 84.9583 62.1368V61.2536Z" fill="#4D4D4D"/>
    <path d="M98.962 60.2954H94.3225V62.1363C94.3225 62.2747 94.3225 62.3704 94.3225 62.4343C94.3225 62.4981 94.3331 62.5939 94.3544 62.7003C94.3757 62.8067 94.4076 62.8918 94.4395 62.945C94.4715 62.9983 94.5353 63.0621 94.6098 63.1366C94.6843 63.2111 94.7801 63.2643 94.8971 63.2962C95.0035 63.3281 95.1525 63.3601 95.3228 63.3813C95.493 63.4026 95.6952 63.4239 95.9187 63.4239C96.1847 63.4239 96.4082 63.4133 96.5891 63.3813C96.7806 63.3601 96.9296 63.3068 97.0466 63.243C97.1637 63.1792 97.2594 63.1153 97.3233 63.0515C97.3871 62.9876 97.4403 62.9025 97.4723 62.7854C97.5042 62.6684 97.5148 62.5726 97.5255 62.4875C97.5361 62.413 97.5361 62.2959 97.5361 62.1363V61.3382H98.962V62.1363C98.962 62.413 98.9514 62.6258 98.9407 62.7748C98.9301 62.9238 98.8982 63.1153 98.845 63.3601C98.7918 63.6048 98.7066 63.7963 98.5789 63.924C98.4512 64.0517 98.2703 64.1901 98.0575 64.339C97.8447 64.488 97.5574 64.5944 97.1956 64.6476C96.8338 64.7115 96.4082 64.7434 95.9187 64.7434C95.4292 64.7434 95.0035 64.7115 94.6417 64.6476C94.2799 64.5838 93.9926 64.4774 93.7798 64.339C93.567 64.1901 93.3967 64.0517 93.2584 63.924C93.1307 63.7963 93.0349 63.6048 92.9924 63.3601C92.9498 63.1153 92.9072 62.9238 92.8966 62.7748C92.886 62.6258 92.8753 62.413 92.8753 62.1363V57.1456C92.8753 56.869 92.886 56.6562 92.8966 56.5072C92.9072 56.3582 92.9392 56.1667 92.9924 55.9219C93.0456 55.6772 93.1307 55.4856 93.2584 55.3579C93.3861 55.2302 93.567 55.0919 93.7798 54.9429C93.9926 54.794 94.2799 54.6875 94.6417 54.6343C95.0035 54.5705 95.4292 54.5386 95.9187 54.5386C96.4082 54.5386 96.8338 54.5705 97.1956 54.6343C97.5574 54.6982 97.8447 54.8046 98.0575 54.9429C98.2703 55.0919 98.4406 55.2302 98.5789 55.3579C98.7173 55.4856 98.8024 55.6772 98.845 55.9219C98.8875 56.1667 98.9301 56.3582 98.9407 56.5072C98.9514 56.6562 98.962 56.869 98.962 57.1456V60.2954ZM94.3225 57.1456V58.9866H97.5361V57.1456C97.5361 56.986 97.5361 56.869 97.5255 56.7945C97.5148 56.72 97.5042 56.6136 97.4723 56.4965C97.4403 56.3795 97.3978 56.2837 97.3233 56.2305C97.2594 56.1667 97.1637 56.1028 97.0466 56.039C96.9296 55.9751 96.7806 55.9219 96.5891 55.9006C96.3975 55.8794 96.174 55.8581 95.9187 55.8581C95.6952 55.8581 95.493 55.8687 95.3228 55.9006C95.1525 55.9326 95.0142 55.9538 94.8971 55.9858C94.7907 56.0177 94.6949 56.0709 94.6098 56.1454C94.5247 56.2199 94.4715 56.2837 94.4395 56.3369C94.4076 56.3901 94.3757 56.4753 94.3544 56.5817C94.3331 56.6881 94.3225 56.7838 94.3225 56.8477C94.3225 56.9115 94.3225 57.0073 94.3225 57.1456Z" fill="#4D4D4D"/>
    <path d="M109.763 54.645L112.349 64.6477H110.869L108.635 55.9752H108.56L106.326 64.6477H104.847L107.422 54.645H109.763Z" fill="#4D4D4D"/>
    <path d="M121.457 64.6369H118.425V54.6343H119.85V58.7417H121.468C121.957 58.7417 122.383 58.7737 122.745 58.8269C123.107 58.8801 123.394 58.9865 123.607 59.1142C123.82 59.2419 123.99 59.3802 124.128 59.5079C124.256 59.6356 124.352 59.8165 124.394 60.04C124.447 60.2741 124.479 60.4656 124.49 60.6039C124.501 60.7423 124.511 60.9551 124.511 61.2318V62.115C124.511 62.3916 124.501 62.6045 124.49 62.7428C124.479 62.8811 124.447 63.0727 124.394 63.3068C124.341 63.5409 124.256 63.7218 124.128 63.8388C124 63.9665 123.82 64.0942 123.607 64.2326C123.394 64.3709 123.107 64.4667 122.745 64.5199C122.362 64.6156 121.936 64.6369 121.457 64.6369ZM123.053 61.253C123.053 61.0934 123.053 60.9764 123.043 60.9125C123.032 60.8487 123.021 60.7529 122.99 60.6359C122.958 60.5188 122.915 60.4443 122.841 60.3911C122.777 60.3379 122.681 60.2847 122.575 60.2209C122.468 60.157 122.309 60.1251 122.117 60.1038C121.925 60.0825 121.702 60.0719 121.436 60.0719H119.819V63.3174H121.436C121.702 63.3174 121.925 63.3068 122.117 63.2855C122.309 63.2642 122.458 63.2216 122.575 63.1684C122.692 63.1152 122.777 63.0514 122.841 62.9982C122.904 62.945 122.958 62.8599 122.99 62.7534C123.021 62.647 123.032 62.5513 123.043 62.4768C123.053 62.4023 123.053 62.2852 123.053 62.1363V61.253Z" fill="#4D4D4D"/>
    <path d="M137.877 54.645L135.429 59.6463L137.877 64.637H136.291L134.163 60.2954H134.088L131.96 64.637H130.375L132.811 59.6463L130.375 54.645H131.96L134.088 58.9866H134.163L136.291 54.645H137.877Z" fill="#4D4D4D"/>
    <path d="M145.698 54.6343C146.06 54.5705 146.485 54.5386 146.975 54.5386C147.464 54.5386 147.89 54.5705 148.252 54.6343C148.613 54.6982 148.901 54.8046 149.114 54.9429C149.326 55.0919 149.497 55.2302 149.635 55.3579C149.773 55.4856 149.858 55.6772 149.901 55.9219C149.944 56.1667 149.986 56.3582 149.997 56.5072C150.007 56.6562 150.018 56.869 150.018 57.1456V62.1363C150.018 62.413 150.007 62.6258 149.997 62.7748C149.986 62.9238 149.954 63.1153 149.901 63.3601C149.848 63.6048 149.763 63.7963 149.635 63.924C149.507 64.0517 149.326 64.1901 149.114 64.339C148.901 64.488 148.613 64.5944 148.252 64.6476C147.89 64.7115 147.464 64.7434 146.975 64.7434C146.485 64.7434 146.06 64.7115 145.698 64.6476C145.336 64.5838 145.049 64.4774 144.836 64.339C144.623 64.1901 144.453 64.0517 144.314 63.924C144.187 63.7963 144.091 63.6048 144.048 63.3601C144.006 63.1153 143.963 62.9238 143.953 62.7748C143.942 62.6258 143.931 62.413 143.931 62.1363V57.1456C143.931 56.869 143.942 56.6562 143.953 56.5072C143.963 56.3582 143.995 56.1667 144.048 55.9219C144.102 55.6772 144.187 55.4856 144.314 55.3579C144.442 55.2302 144.623 55.0919 144.836 54.9429C145.049 54.8046 145.336 54.6982 145.698 54.6343ZM148.581 62.1363V57.1456C148.581 56.986 148.581 56.869 148.571 56.7945C148.56 56.72 148.55 56.6136 148.518 56.4965C148.486 56.3795 148.443 56.2837 148.369 56.2305C148.305 56.1667 148.209 56.1028 148.092 56.039C147.975 55.9751 147.826 55.9219 147.634 55.9006C147.443 55.8794 147.219 55.8581 146.964 55.8581C146.741 55.8581 146.538 55.8687 146.368 55.9006C146.198 55.9326 146.06 55.9538 145.942 55.9858C145.836 56.0177 145.74 56.0709 145.655 56.1454C145.57 56.2199 145.517 56.2837 145.485 56.3369C145.453 56.3901 145.421 56.4753 145.4 56.5817C145.378 56.6881 145.368 56.7838 145.368 56.8477C145.368 56.9115 145.368 57.018 145.368 57.1456V62.1363C145.368 62.2747 145.368 62.3704 145.368 62.4343C145.368 62.4981 145.378 62.5939 145.4 62.7003C145.421 62.8067 145.453 62.8918 145.485 62.945C145.517 62.9983 145.581 63.0621 145.655 63.1366C145.73 63.2111 145.825 63.2643 145.942 63.2962C146.049 63.3281 146.198 63.3601 146.368 63.3813C146.538 63.4026 146.741 63.4239 146.964 63.4239C147.23 63.4239 147.454 63.4133 147.634 63.3813C147.826 63.3601 147.975 63.3068 148.092 63.243C148.209 63.1792 148.305 63.1153 148.369 63.0515C148.432 62.9876 148.486 62.9025 148.518 62.7854C148.55 62.6684 148.56 62.5726 148.571 62.4875C148.581 62.413 148.581 62.2959 148.581 62.1363Z" fill="#4D4D4D"/>
    <path d="M162.585 57.6778C162.585 58.9654 162.053 59.6038 160.978 59.6038V59.6783C162.042 59.6783 162.585 60.3168 162.585 61.6044V62.1364C162.585 62.4131 162.575 62.6259 162.564 62.7749C162.553 62.9239 162.521 63.1154 162.468 63.3602C162.415 63.6049 162.33 63.7964 162.202 63.9241C162.074 64.0518 161.894 64.1902 161.681 64.3391C161.468 64.4881 161.181 64.5945 160.819 64.6477C160.457 64.7116 160.031 64.7435 159.542 64.7435C159.052 64.7435 158.627 64.7116 158.265 64.6477C157.903 64.5839 157.616 64.4775 157.403 64.3391C157.19 64.1902 157.02 64.0518 156.882 63.9241C156.754 63.7964 156.658 63.6049 156.616 63.3602C156.573 63.1154 156.541 62.9239 156.52 62.7749C156.509 62.6259 156.498 62.4131 156.498 62.1364V61.3383H157.924V62.1364C157.924 62.2748 157.924 62.3705 157.924 62.4344C157.924 62.4982 157.935 62.594 157.956 62.7004C157.978 62.8068 158.01 62.8919 158.041 62.9452C158.084 62.9984 158.137 63.0622 158.212 63.1367C158.286 63.2112 158.382 63.2644 158.499 63.2963C158.605 63.3282 158.754 63.3602 158.925 63.3814C159.095 63.4027 159.297 63.424 159.521 63.424C159.744 63.424 159.946 63.4134 160.116 63.3814C160.287 63.3602 160.425 63.3282 160.542 63.2963C160.648 63.2644 160.744 63.2112 160.829 63.1367C160.915 63.0622 160.968 62.9984 161 62.9452C161.032 62.8919 161.064 62.8068 161.085 62.7004C161.106 62.594 161.117 62.4982 161.117 62.4344C161.117 62.3705 161.117 62.2641 161.117 62.1364V61.6044C161.117 61.4554 161.117 61.3383 161.117 61.2745C161.117 61.2107 161.106 61.1149 161.085 60.9978C161.064 60.8808 161.032 60.8063 161 60.7531C160.957 60.6999 160.904 60.636 160.829 60.5615C160.755 60.4871 160.659 60.4338 160.542 60.4126C160.425 60.3913 160.287 60.3594 160.116 60.3381C159.946 60.3168 159.755 60.3062 159.521 60.3062H158.361V58.9867H159.552C159.776 58.9867 159.978 58.976 160.148 58.9547C160.319 58.9335 160.457 58.9015 160.574 58.8802C160.691 58.859 160.787 58.7951 160.861 58.7313C160.936 58.6674 160.989 58.5929 161.032 58.5397C161.074 58.4865 161.095 58.4014 161.117 58.295C161.138 58.1886 161.149 58.0928 161.149 58.0183C161.149 57.9438 161.149 57.8374 161.149 57.6884V57.1564C161.149 57.0181 161.149 56.9223 161.149 56.8584C161.149 56.7946 161.138 56.6988 161.117 56.5924C161.095 56.486 161.064 56.4009 161.032 56.3477C161 56.2945 160.936 56.2306 160.861 56.1561C160.787 56.0816 160.691 56.0284 160.574 55.9965C160.468 55.9646 160.319 55.9327 160.148 55.9114C159.978 55.8901 159.776 55.8688 159.552 55.8688C159.329 55.8688 159.127 55.8795 158.957 55.9114C158.786 55.9433 158.648 55.9646 158.531 55.9965C158.425 56.0284 158.329 56.0816 158.244 56.1561C158.158 56.2306 158.105 56.2945 158.073 56.3477C158.031 56.4009 158.01 56.486 157.988 56.5924C157.967 56.6988 157.956 56.7946 157.956 56.8584C157.956 56.9223 157.956 57.0287 157.956 57.1564V57.9545H156.53V57.1564C156.53 56.8797 156.541 56.6669 156.552 56.5179C156.562 56.3689 156.594 56.1774 156.647 55.9327C156.701 55.6879 156.786 55.4964 156.913 55.3687C157.041 55.241 157.222 55.1027 157.435 54.9537C157.648 54.8047 157.935 54.6983 158.297 54.6451C158.659 54.5812 159.084 54.5493 159.574 54.5493C160.063 54.5493 160.489 54.5812 160.851 54.6451C161.212 54.7089 161.5 54.8153 161.713 54.9537C161.925 55.1027 162.096 55.241 162.234 55.3687C162.362 55.4964 162.457 55.6879 162.5 55.9327C162.543 56.1774 162.585 56.3689 162.596 56.5179C162.606 56.6669 162.617 56.8797 162.617 57.1564V57.6778H162.585Z" fill="#4D4D4D"/>
    <path d="M174.461 54.645V55.9752H172.13V64.6477H170.704V55.9752H168.385V54.645H174.461Z" fill="#4D4D4D"/>
    <path d="M186.411 60.2954H181.771V62.1363C181.771 62.2747 181.771 62.3704 181.771 62.4343C181.771 62.4981 181.782 62.5939 181.803 62.7003C181.824 62.8067 181.856 62.8918 181.888 62.945C181.92 62.9983 181.984 63.0621 182.058 63.1366C182.133 63.2111 182.229 63.2643 182.346 63.2962C182.452 63.3281 182.601 63.3601 182.771 63.3813C182.942 63.4026 183.144 63.4239 183.367 63.4239C183.633 63.4239 183.857 63.4133 184.038 63.3813C184.229 63.3601 184.378 63.3068 184.495 63.243C184.612 63.1792 184.708 63.1153 184.772 63.0515C184.836 62.9876 184.889 62.9025 184.921 62.7854C184.953 62.6684 184.963 62.5726 184.974 62.4875C184.985 62.413 184.985 62.2959 184.985 62.1363V61.3382H186.411V62.1363C186.411 62.413 186.4 62.6258 186.389 62.7748C186.379 62.9238 186.347 63.1153 186.294 63.3601C186.24 63.6048 186.155 63.7963 186.028 63.924C185.9 64.0517 185.719 64.1901 185.506 64.339C185.293 64.488 185.006 64.5944 184.644 64.6476C184.282 64.7115 183.857 64.7434 183.367 64.7434C182.878 64.7434 182.452 64.7115 182.09 64.6476C181.729 64.5838 181.441 64.4774 181.228 64.339C181.016 64.1901 180.845 64.0517 180.707 63.924C180.579 63.7963 180.484 63.6048 180.441 63.3601C180.398 63.1153 180.356 62.9238 180.345 62.7748C180.335 62.6258 180.324 62.413 180.324 62.1363V57.1456C180.324 56.869 180.335 56.6562 180.345 56.5072C180.356 56.3582 180.388 56.1667 180.441 55.9219C180.494 55.6772 180.579 55.4856 180.707 55.3579C180.835 55.2302 181.016 55.0919 181.228 54.9429C181.441 54.794 181.729 54.6875 182.09 54.6343C182.452 54.5705 182.878 54.5386 183.367 54.5386C183.857 54.5386 184.282 54.5705 184.644 54.6343C185.006 54.6982 185.293 54.8046 185.506 54.9429C185.719 55.0919 185.889 55.2302 186.028 55.3579C186.166 55.4856 186.251 55.6772 186.294 55.9219C186.336 56.1667 186.379 56.3582 186.389 56.5072C186.4 56.6562 186.411 56.869 186.411 57.1456V60.2954ZM181.771 57.1456V58.9866H184.985V57.1456C184.985 56.986 184.985 56.869 184.974 56.7945C184.963 56.72 184.953 56.6136 184.921 56.4965C184.889 56.3795 184.846 56.2837 184.772 56.2305C184.708 56.1667 184.612 56.1028 184.495 56.039C184.378 55.9751 184.229 55.9219 184.038 55.9006C183.846 55.8794 183.623 55.8581 183.367 55.8581C183.144 55.8581 182.942 55.8687 182.771 55.9006C182.601 55.9326 182.463 55.9538 182.346 55.9858C182.239 56.0177 182.144 56.0709 182.058 56.1454C181.973 56.2199 181.92 56.2837 181.888 56.3369C181.856 56.3901 181.824 56.4753 181.803 56.5817C181.782 56.6881 181.771 56.7838 181.771 56.8477C181.771 56.9115 181.771 57.0073 181.771 57.1456Z" fill="#4D4D4D"/>
    <path d="M199.978 54.645L197.531 59.6463L199.978 64.637H198.393L196.264 60.2954H196.19L194.062 64.637H192.476L194.913 59.6463L192.476 54.645H194.062L196.19 58.9866H196.264L198.393 54.645H199.978Z" fill="#4D4D4D"/>
    <path d="M210.864 54.645H212.29V64.6477H210.864V60.3061H207.65V64.6477H206.224V54.645H207.65V58.9866H210.864V54.645Z" fill="#4D4D4D"/>
    <path d="M223.176 54.645H225.676V64.6477H224.25V55.9752H224.176L221.739 64.6477H219.249V54.645H220.675V63.3175H220.749L223.176 54.645Z" fill="#4D4D4D"/>
    <path d="M239.425 54.6449L236.977 59.6462L239.425 64.6369H237.839L235.711 60.2953H234.062V64.6369H232.636V54.6343H234.062V58.9758H235.711L237.839 54.6343H239.425V54.6449Z" fill="#4D4D4D"/>
    <path d="M247.161 54.6343C247.522 54.5705 247.948 54.5386 248.438 54.5386C248.927 54.5386 249.353 54.5705 249.715 54.6343C250.076 54.6982 250.364 54.8046 250.576 54.9429C250.789 55.0919 250.96 55.2302 251.098 55.3579C251.226 55.4856 251.321 55.6772 251.364 55.9219C251.406 56.1667 251.449 56.3582 251.46 56.5072C251.47 56.6562 251.481 56.869 251.481 57.1456V64.637H250.055V63.6474H249.981C249.938 63.7751 249.906 63.8815 249.864 63.956C249.832 64.0304 249.757 64.1262 249.661 64.2433C249.555 64.3497 249.438 64.4454 249.289 64.5093C249.14 64.5731 248.938 64.6263 248.672 64.6795C248.406 64.7221 248.097 64.754 247.735 64.754C247.416 64.754 247.129 64.7221 246.884 64.6689C246.639 64.6157 246.426 64.5412 246.267 64.4667C246.107 64.3922 245.969 64.2752 245.852 64.1156C245.735 63.956 245.65 63.8283 245.596 63.7112C245.543 63.5942 245.501 63.4239 245.469 63.2111C245.437 62.9983 245.426 62.828 245.426 62.7003C245.426 62.5726 245.426 62.3917 245.426 62.1576V61.6256C245.426 61.5191 245.426 61.4234 245.426 61.3489C245.426 61.2744 245.447 61.168 245.469 61.0084C245.49 60.8594 245.522 60.7211 245.565 60.6146C245.607 60.5082 245.671 60.3699 245.767 60.2209C245.862 60.0719 245.969 59.9443 246.097 59.8378C246.224 59.7314 246.395 59.625 246.597 59.5186C246.799 59.4122 247.033 59.3271 247.288 59.2632L250.055 58.5609V57.1456C250.055 57.0073 250.055 56.9115 250.055 56.8477C250.055 56.7838 250.044 56.6881 250.023 56.5817C250.002 56.4753 249.97 56.3901 249.938 56.3369C249.906 56.2837 249.842 56.2199 249.768 56.1454C249.693 56.0709 249.597 56.0177 249.48 55.9858C249.374 55.9538 249.225 55.9219 249.055 55.9006C248.885 55.8794 248.682 55.8581 248.459 55.8581C248.235 55.8581 248.033 55.8687 247.863 55.9006C247.693 55.9326 247.554 55.9538 247.437 55.9858C247.331 56.0177 247.235 56.0709 247.15 56.1454C247.065 56.2199 247.012 56.2837 246.98 56.3369C246.937 56.3901 246.916 56.4753 246.895 56.5817C246.873 56.6881 246.863 56.7838 246.863 56.8477C246.863 56.9115 246.863 57.018 246.863 57.1456V57.9437H245.437V57.1456C245.437 56.869 245.447 56.6562 245.458 56.5072C245.469 56.3582 245.501 56.1667 245.554 55.9219C245.607 55.6772 245.692 55.4856 245.82 55.3579C245.948 55.2302 246.128 55.0919 246.341 54.9429C246.512 54.8046 246.799 54.6982 247.161 54.6343ZM250.034 62.1363V59.923L247.714 60.4976C247.501 60.5508 247.331 60.6253 247.203 60.7211C247.076 60.8168 246.98 60.9232 246.937 61.0509C246.884 61.168 246.852 61.2744 246.841 61.3382C246.831 61.4127 246.82 61.4979 246.82 61.6043V62.1363C246.82 62.2747 246.82 62.3704 246.82 62.4343C246.82 62.4981 246.831 62.5939 246.852 62.7003C246.873 62.8067 246.905 62.8918 246.937 62.945C246.98 62.9983 247.033 63.0621 247.107 63.1366C247.182 63.2111 247.278 63.2643 247.395 63.2962C247.501 63.3281 247.65 63.3601 247.82 63.3813C247.991 63.4026 248.193 63.4239 248.416 63.4239C248.64 63.4239 248.842 63.4133 249.012 63.3813C249.182 63.3601 249.321 63.3281 249.438 63.2962C249.544 63.2643 249.64 63.2111 249.725 63.1366C249.81 63.0621 249.864 62.9983 249.895 62.945C249.927 62.8918 249.959 62.8067 249.981 62.7003C250.002 62.5939 250.012 62.4981 250.012 62.4343C250.012 62.3704 250.034 62.2747 250.034 62.1363Z" fill="#4D4D4D"/>
    <path d="M275.136 63.3175H276.19V66.4247H274.764V64.637H268.698V66.4247H267.272V63.3175H268.326L270.56 54.645H272.901L275.136 63.3175ZM271.688 55.9645L269.794 63.3175H273.646L271.752 55.9645H271.688Z" fill="#4D4D4D"/>
    <path d="M286.086 54.645L288.672 64.6477H287.193L284.958 55.9752H284.883L282.649 64.6477H281.17L283.745 54.645H286.086Z" fill="#4D4D4D"/>
    <path d="M297.6 54.645H300.632V64.6477H299.206V61.2531H297.812L296.152 64.6477H294.567L296.28 61.1467C296.099 61.1148 295.929 61.0616 295.769 61.0084C295.61 60.9552 295.482 60.8913 295.365 60.8381C295.248 60.7743 295.152 60.6998 295.067 60.604C294.982 60.5083 294.907 60.4231 294.854 60.3593C294.801 60.2848 294.748 60.189 294.716 60.072C294.673 59.9443 294.652 59.8485 294.631 59.774C294.609 59.6995 294.599 59.5825 294.588 59.4335C294.577 59.2845 294.567 59.1781 294.567 59.093C294.567 59.0185 294.567 58.9015 294.567 58.7525V57.1457C294.567 56.869 294.577 56.6562 294.588 56.5179C294.599 56.3795 294.631 56.188 294.684 55.9539C294.737 55.7198 294.822 55.5389 294.95 55.4218C295.078 55.2941 295.259 55.1664 295.471 55.0281C295.684 54.8898 295.971 54.794 296.333 54.7408C296.684 54.6663 297.11 54.645 297.6 54.645ZM299.217 59.923V55.9645H297.6C297.334 55.9645 297.11 55.9752 296.929 55.9964C296.738 56.0177 296.589 56.0603 296.472 56.1135C296.355 56.1667 296.269 56.2305 296.206 56.2838C296.142 56.337 296.089 56.4221 296.057 56.5285C296.025 56.6349 296.014 56.7307 296.003 56.8052C295.993 56.8797 295.993 56.9967 295.993 57.1457V58.7525C295.993 58.9121 295.993 59.0292 296.003 59.093C296.014 59.1675 296.025 59.2633 296.057 59.3697C296.089 59.4761 296.131 59.5612 296.206 59.6144C296.269 59.6676 296.365 59.7208 296.472 59.7847C296.589 59.8379 296.738 59.8804 296.929 59.9017C297.121 59.923 297.344 59.9336 297.6 59.9336H299.217V59.923Z" fill="#4D4D4D"/>
    <path d="M324.394 63.3175H325.447V66.4247H324.021V64.637H317.956V66.4247H316.53V63.3175H317.583L319.818 54.645H322.159L324.394 63.3175ZM320.957 55.9645L319.063 63.3175H322.915L321.021 55.9645H320.957Z" fill="#4D4D4D"/>
    <path d="M337.227 60.2954H332.587V62.1363C332.587 62.2747 332.587 62.3704 332.587 62.4343C332.587 62.4981 332.598 62.5939 332.619 62.7003C332.641 62.8067 332.673 62.8918 332.705 62.945C332.736 62.9983 332.8 63.0621 332.875 63.1366C332.949 63.2111 333.045 63.2643 333.162 63.2962C333.268 63.3281 333.417 63.3601 333.588 63.3813C333.758 63.4026 333.96 63.4239 334.184 63.4239C334.45 63.4239 334.673 63.4133 334.854 63.3813C335.046 63.3601 335.195 63.3068 335.312 63.243C335.429 63.1792 335.524 63.1153 335.588 63.0515C335.652 62.9876 335.705 62.9025 335.737 62.7854C335.769 62.6684 335.78 62.5726 335.79 62.4875C335.801 62.413 335.801 62.2959 335.801 62.1363V61.3382H337.227V62.1363C337.227 62.413 337.216 62.6258 337.206 62.7748C337.195 62.9238 337.163 63.1153 337.11 63.3601C337.057 63.6048 336.972 63.7963 336.844 63.924C336.716 64.0517 336.535 64.1901 336.322 64.339C336.11 64.488 335.822 64.5944 335.461 64.6476C335.099 64.7115 334.673 64.7434 334.184 64.7434C333.694 64.7434 333.268 64.7115 332.907 64.6476C332.545 64.5838 332.258 64.4774 332.045 64.339C331.832 64.1901 331.662 64.0517 331.523 63.924C331.396 63.7963 331.3 63.6048 331.257 63.3601C331.215 63.1153 331.172 62.9238 331.162 62.7748C331.151 62.6258 331.14 62.413 331.14 62.1363V57.1456C331.14 56.869 331.151 56.6562 331.162 56.5072C331.172 56.3582 331.204 56.1667 331.257 55.9219C331.311 55.6772 331.396 55.4856 331.523 55.3579C331.651 55.2302 331.832 55.0919 332.045 54.9429C332.258 54.794 332.545 54.6875 332.907 54.6343C333.268 54.5705 333.694 54.5386 334.184 54.5386C334.673 54.5386 335.099 54.5705 335.461 54.6343C335.822 54.6982 336.11 54.8046 336.322 54.9429C336.535 55.0919 336.706 55.2302 336.844 55.3579C336.982 55.4856 337.067 55.6772 337.11 55.9219C337.152 56.1667 337.195 56.3582 337.206 56.5072C337.216 56.6562 337.227 56.869 337.227 57.1456V60.2954ZM332.587 57.1456V58.9866H335.801V57.1456C335.801 56.986 335.801 56.869 335.79 56.7945C335.78 56.72 335.769 56.6136 335.737 56.4965C335.705 56.3795 335.663 56.2837 335.588 56.2305C335.524 56.1667 335.429 56.1028 335.312 56.039C335.195 55.9751 335.046 55.9219 334.854 55.9006C334.662 55.8794 334.439 55.8581 334.184 55.8581C333.96 55.8581 333.758 55.8687 333.588 55.9006C333.417 55.9326 333.279 55.9538 333.162 55.9858C333.056 56.0177 332.96 56.0709 332.875 56.1454C332.79 56.2199 332.736 56.2837 332.705 56.3369C332.673 56.3901 332.641 56.4753 332.619 56.5817C332.598 56.6881 332.587 56.7838 332.587 56.8477C332.587 56.9115 332.587 57.0073 332.587 57.1456Z" fill="#4D4D4D"/>
    <path d="M348.028 54.645L350.613 64.6477H349.134L346.9 55.9752H346.825L344.591 64.6477H343.112L345.687 54.645H348.028Z" fill="#4D4D4D"/>
    <path d="M358.179 54.6343C358.541 54.5705 358.967 54.5386 359.456 54.5386C359.946 54.5386 360.371 54.5705 360.733 54.6343C361.095 54.6982 361.382 54.8046 361.595 54.9429C361.808 55.0919 361.978 55.2302 362.117 55.3579C362.255 55.4856 362.34 55.6772 362.383 55.9219C362.425 56.1667 362.457 56.3582 362.478 56.5072C362.5 56.6562 362.5 56.869 362.5 57.1456V64.637H361.074V63.6474H360.999C360.957 63.7751 360.925 63.8815 360.882 63.956C360.85 64.0304 360.776 64.1262 360.68 64.2433C360.574 64.3497 360.457 64.4454 360.308 64.5093C360.159 64.5731 359.956 64.6263 359.69 64.6795C359.424 64.7221 359.116 64.754 358.754 64.754C358.435 64.754 358.147 64.7221 357.903 64.6689C357.658 64.6157 357.445 64.5412 357.286 64.4667C357.126 64.3922 356.988 64.2752 356.87 64.1156C356.753 63.956 356.668 63.8283 356.615 63.7112C356.562 63.5942 356.519 63.4239 356.487 63.2111C356.456 62.9983 356.445 62.828 356.445 62.7003C356.445 62.5726 356.445 62.3917 356.445 62.1576V61.6256C356.445 61.5191 356.445 61.4234 356.445 61.3489C356.445 61.2744 356.466 61.168 356.487 61.0084C356.509 60.8594 356.541 60.7211 356.583 60.6146C356.626 60.5082 356.69 60.3699 356.785 60.2209C356.881 60.0719 356.988 59.9443 357.115 59.8378C357.243 59.7314 357.413 59.625 357.615 59.5186C357.818 59.4122 358.052 59.3271 358.307 59.2632L361.074 58.5609V57.1456C361.074 57.0073 361.074 56.9115 361.074 56.8477C361.074 56.7838 361.063 56.6881 361.042 56.5817C361.021 56.4753 360.989 56.3901 360.957 56.3369C360.914 56.2837 360.861 56.2199 360.786 56.1454C360.712 56.0709 360.616 56.0177 360.499 55.9858C360.393 55.9538 360.244 55.9219 360.073 55.9006C359.903 55.8794 359.701 55.8581 359.478 55.8581C359.254 55.8581 359.052 55.8687 358.882 55.9006C358.711 55.9326 358.573 55.9538 358.456 55.9858C358.35 56.0177 358.254 56.0709 358.169 56.1454C358.084 56.2199 358.03 56.2837 357.998 56.3369C357.956 56.3901 357.935 56.4753 357.913 56.5817C357.892 56.6881 357.881 56.7838 357.881 56.8477C357.881 56.9115 357.881 57.018 357.881 57.1456V57.9437H356.413V57.1456C356.413 56.869 356.424 56.6562 356.434 56.5072C356.445 56.3582 356.477 56.1667 356.53 55.9219C356.583 55.6772 356.668 55.4856 356.796 55.3579C356.924 55.2302 357.105 55.0919 357.317 54.9429C357.53 54.8046 357.818 54.6982 358.179 54.6343ZM361.052 62.1363V59.923L358.733 60.4976C358.52 60.5508 358.35 60.6253 358.222 60.7211C358.094 60.8168 357.998 60.9232 357.956 61.0509C357.903 61.168 357.871 61.2744 357.86 61.3382C357.849 61.4127 357.839 61.4979 357.839 61.6043V62.1363C357.839 62.2747 357.839 62.3704 357.839 62.4343C357.839 62.4981 357.849 62.5939 357.871 62.7003C357.892 62.8067 357.924 62.8918 357.956 62.945C357.998 62.9983 358.052 63.0621 358.126 63.1366C358.201 63.2111 358.296 63.2643 358.413 63.2962C358.52 63.3281 358.669 63.3601 358.839 63.3813C359.009 63.4026 359.212 63.4239 359.435 63.4239C359.658 63.4239 359.861 63.4133 360.031 63.3813C360.201 63.3601 360.339 63.3281 360.457 63.2962C360.563 63.2643 360.659 63.2111 360.744 63.1366C360.829 63.0621 360.882 62.9983 360.914 62.945C360.957 62.8918 360.978 62.8067 360.999 62.7003C361.021 62.5939 361.031 62.4981 361.031 62.4343C361.031 62.3704 361.052 62.2747 361.052 62.1363Z" fill="#4D4D4D"/>
</svg>
