<svg width="172" height="33" viewBox="0 0 172 33" fill="none" xmlns="http://www.w3.org/2000/svg">
    <path d="M17.6322 12.1771L16.9162 10.5636C16.6943 10.0594 15.9784 10.0594 15.7565 10.5636L11.259 20.7385C11.0724 21.157 11.38 21.6259 11.8388 21.6259H16.528C16.9868 21.6259 17.2943 21.157 17.1078 20.7385L15.5901 17.3049C15.5195 17.1435 15.5195 16.957 15.5901 16.7906L15.9985 15.8628C16.2204 15.3586 16.9364 15.3586 17.1582 15.8628L19.5381 21.2478C19.6389 21.4797 19.8658 21.6259 20.1179 21.6259H20.8288C21.2877 21.6259 21.5952 21.157 21.4087 20.7385L17.6322 12.1771ZM31.4726 13.2006H29.5567C29.2239 11.8393 28.6894 10.5535 27.9785 9.38377L29.3298 8.0325C29.8541 7.50812 29.8541 6.65602 29.3298 6.13164L26.6827 3.48456C26.1583 2.96018 25.3062 2.96018 24.7818 3.48456L23.4305 4.83583C22.2658 4.1249 20.9801 3.59044 19.6137 3.25766V1.34168C19.6137 0.600494 19.0137 0.000488281 18.2725 0.000488281H14.5313C13.7901 0.000488281 13.1901 0.600494 13.1901 1.34168V3.25766C11.8287 3.59044 10.543 4.1249 9.37326 4.83583L8.02199 3.48456C7.49761 2.96018 6.6455 2.96018 6.12113 3.48456L3.47404 6.13164C2.94967 6.65602 2.94967 7.50812 3.47404 8.0325L4.82532 9.38377C4.11439 10.5485 3.57993 11.8342 3.24715 13.2006H1.33117C0.600067 13.2006 6.10352e-05 13.8006 6.10352e-05 14.5418V18.283C6.10352e-05 19.0242 0.600067 19.6242 1.34125 19.6242H3.25724C3.59001 20.9856 4.12447 22.2713 4.8354 23.4411L3.48413 24.7923C2.95975 25.3167 2.95975 26.1688 3.48413 26.6932L6.13121 29.3403C6.65559 29.8646 7.5077 29.8646 8.03207 29.3403L9.38335 27.989C10.5481 28.6999 11.8338 29.2344 13.2002 29.5672V31.4831C13.2002 32.2243 13.8002 32.8243 14.5414 32.8243H18.2826C19.0238 32.8243 19.6238 32.2243 19.6238 31.4831V29.5672C20.9851 29.2344 22.2709 28.6999 23.4406 27.989L24.7919 29.3403C25.3163 29.8646 26.1684 29.8646 26.6928 29.3403L29.3398 26.6932C29.8642 26.1688 29.8642 25.3167 29.3398 24.7923L27.9886 23.4411C28.6995 22.2763 29.234 20.9906 29.5667 19.6242H31.4827C32.2239 19.6242 32.8239 19.0242 32.8239 18.283V14.5418C32.8138 13.8006 32.2138 13.2006 31.4726 13.2006ZM16.4069 26.7386C10.7044 26.7386 6.08079 22.115 6.08079 16.4124C6.08079 10.7098 10.7044 6.08626 16.4069 6.08626C22.1095 6.08626 26.7331 10.7098 26.7331 16.4124C26.7331 22.115 22.1095 26.7386 16.4069 26.7386Z"
          fill="white"/>
    <path d="M44.9501 20.6633L44.8896 18.0767H40.6643L39.6761 20.6633H37.029L42.7215 5.75391H47.0072L47.4409 20.6583H44.9501V20.6633ZM41.5366 15.8027H44.8089L44.577 8.043H44.4963L41.5366 15.8027Z"
          fill="white"/>
    <path d="M51.7115 5.75391H59.5721L59.1889 8.03796H53.8241L51.6107 20.6583H49.0846L51.7115 5.75391Z" fill="white"/>
    <path d="M61.1704 20.6631H58.6443L61.2713 5.75879H65.6175C66.2226 5.75879 66.752 5.79408 67.2058 5.86971C67.6596 5.94535 68.0276 6.03106 68.315 6.12686C68.6024 6.22266 68.8344 6.37896 69.0058 6.58569C69.1772 6.79241 69.3033 6.97897 69.3789 7.14032C69.4545 7.30166 69.4949 7.53864 69.4898 7.85125C69.4848 8.16385 69.4697 8.421 69.4445 8.6126C69.4192 8.80924 69.3688 9.09664 69.3033 9.47983L68.91 11.7538C68.7486 12.6563 68.5772 13.2916 68.3957 13.6647C68.0377 14.411 67.3873 14.9253 66.4444 15.2026C65.7839 15.3891 64.9368 15.4849 63.8982 15.4849H62.078L61.1704 20.6631ZM63.3839 8.0378L62.4763 13.211H64.2965C64.599 13.211 64.8612 13.2009 65.078 13.1757C65.2948 13.1505 65.4763 13.1051 65.6226 13.0345C65.7688 12.9639 65.8797 12.8984 65.9654 12.8379C66.0511 12.7773 66.1217 12.6765 66.1772 12.5404C66.2327 12.4042 66.273 12.2883 66.2982 12.1975C66.3234 12.1068 66.3486 11.9605 66.3839 11.7588L66.7772 9.48488C66.8629 9.10672 66.8932 8.81428 66.868 8.60251C66.8427 8.39075 66.7117 8.24453 66.4797 8.16385C66.2478 8.08318 65.8293 8.04284 65.2192 8.04284H63.3839V8.0378Z"
          fill="white"/>
    <path d="M76.4378 5.63232C76.9722 5.63232 77.4411 5.65753 77.8546 5.70796C78.263 5.75838 78.6109 5.83401 78.8832 5.93989C79.1605 6.04577 79.3924 6.16174 79.584 6.29284C79.7756 6.42393 79.9218 6.58023 80.0176 6.76679C80.1134 6.95335 80.1891 7.1399 80.2345 7.32646C80.2798 7.51302 80.3 7.72982 80.2849 7.97184C80.2697 8.21386 80.2496 8.45084 80.2193 8.67773C80.1891 8.90463 80.1487 9.16177 80.1034 9.43404C80.0983 9.45421 80.0933 9.46934 80.0933 9.47438L78.7672 16.9215C78.7017 17.3148 78.6462 17.6072 78.6059 17.7988C78.5655 17.9955 78.4899 18.2526 78.384 18.5753C78.2781 18.898 78.1571 19.1451 78.021 19.3115C77.8848 19.4778 77.6932 19.6745 77.4512 19.8913C77.2042 20.1081 76.9218 20.2694 76.5991 20.3753C76.2764 20.4812 75.8731 20.572 75.3941 20.6476C74.9151 20.7232 74.3756 20.7636 73.7655 20.7636C73.1554 20.7636 72.631 20.7232 72.1772 20.6476C71.7234 20.572 71.3554 20.4812 71.068 20.3753C70.7806 20.2694 70.5486 20.1081 70.3822 19.8913C70.2159 19.6745 70.0898 19.4778 70.0142 19.3115C69.9385 19.1451 69.8982 18.898 69.9033 18.5753C69.9083 18.2526 69.9184 17.9904 69.9436 17.7988C69.9688 17.6022 70.0142 17.3097 70.0797 16.9215L71.4058 9.47438C71.4814 9.03068 71.547 8.68782 71.6024 8.45588C71.6579 8.2189 71.7587 7.92646 71.8949 7.57352C72.031 7.22058 72.2125 6.9483 72.4293 6.76175C72.6461 6.57519 72.9285 6.37855 73.2714 6.18191C73.6142 5.98527 74.0529 5.84409 74.5823 5.75838C75.1117 5.67266 75.7319 5.63232 76.4378 5.63232ZM77.5823 9.48446C77.6579 9.10631 77.6882 8.80378 77.6731 8.57185C77.658 8.33991 77.5319 8.17353 77.2848 8.06764C77.0378 7.96176 76.6193 7.91134 76.0243 7.91134C75.6663 7.91134 75.3638 7.94159 75.1218 7.99705C74.8747 8.05252 74.6831 8.11806 74.552 8.18865C74.4159 8.25924 74.305 8.37521 74.2193 8.5416C74.1335 8.70798 74.073 8.84412 74.0428 8.95505C74.0125 9.06597 73.9772 9.24244 73.9369 9.48446L72.6108 16.9316C72.5352 17.3097 72.505 17.6123 72.5201 17.8442C72.5352 18.0761 72.6613 18.2425 72.9083 18.3484C73.1554 18.4543 73.5739 18.5047 74.1688 18.5047C74.4663 18.5047 74.7235 18.4896 74.9403 18.4593C75.1571 18.4291 75.3386 18.3736 75.4848 18.298C75.631 18.2224 75.747 18.1467 75.8327 18.0711C75.9184 17.9955 75.9941 17.8896 76.0495 17.7434C76.105 17.5971 76.1453 17.4761 76.1705 17.3753C76.1958 17.2745 76.221 17.1282 76.2462 16.9316L77.5823 9.48446Z"
          fill="white"/>
    <path d="M90.5858 5.75391H94.6699L92.043 20.6583H89.5169L91.7505 8.03796H91.6699L87.3438 15.0716L85.4732 8.03796H85.3925L83.179 20.6583H80.653L83.2799 5.75391H87.0715L88.1203 9.75731L90.5858 5.75391Z"
          fill="white"/>
    <path d="M104.865 8.0378H99.5002L98.7943 12.0715H103.927L103.534 14.3454H98.4111L97.685 18.3892H103.02L102.626 20.6631H94.7657L97.3926 5.75879H105.253L104.865 8.0378Z"
          fill="white"/>
    <path d="M117.243 5.75391L113.028 13.2111L114.616 20.6583H112.07L110.724 14.3405H110.643L107.068 20.6583H104.209L108.435 13.2111L106.836 5.75391H109.383L110.729 12.0716H110.82L114.394 5.75391H117.243Z"
          fill="white"/>
    <path d="M123.41 20.6631L123.349 18.0766H119.124L118.136 20.6631H115.489L121.176 5.75879H125.462L125.895 20.6631H123.41ZM119.991 15.8026H123.263L123.032 8.04284H122.951L119.991 15.8026Z"
          fill="white"/>
    <path d="M136.343 5.75391H138.859L136.232 20.6583H133.706L134.825 14.3405H131.19L130.07 20.6583H127.544L130.171 5.75391H132.697L131.578 12.0716H135.223L136.343 5.75391Z"
          fill="white"/>
    <path d="M146.497 5.75391H151.106L148.479 20.6583H145.953L148.196 8.03796H148.106L143.578 20.6583H138.959L141.586 5.75391H144.112L141.879 18.3843H141.959L146.497 5.75391Z"
          fill="white"/>
    <path d="M163.353 5.75391L159.138 13.2111L160.726 20.6583H158.18L156.834 14.3405H154.852L153.733 20.6583H151.207L153.834 5.75391H156.36L155.24 12.0716H156.919L160.504 5.75391H163.353Z"
          fill="white"/>
    <path d="M169.514 20.6631L169.454 18.0766H165.229L164.24 20.6631H161.593L167.281 5.75879H171.566L172 20.6631H169.514ZM166.101 15.8026H169.373L169.141 8.04284H169.06L166.101 15.8026Z"
          fill="white"/>
    <path d="M39.782 28.6498H40.4576V29.0683C40.4576 29.1994 40.4526 29.3002 40.4475 29.3708C40.4425 29.4414 40.4274 29.5322 40.4021 29.6481C40.3769 29.7641 40.3366 29.8549 40.2761 29.9154C40.2156 29.9759 40.1299 30.0414 40.029 30.112C39.9282 30.1826 39.7921 30.233 39.6206 30.2582C39.4492 30.2885 39.2475 30.3036 39.0156 30.3036C38.7836 30.3036 38.582 30.2885 38.4105 30.2582C38.2391 30.228 38.103 30.1776 38.0021 30.112C37.9013 30.0414 37.8206 29.9759 37.7551 29.9154C37.6946 29.8549 37.6492 29.7641 37.629 29.6481C37.6088 29.5322 37.5887 29.4414 37.5836 29.3708C37.5786 29.3002 37.5735 29.1994 37.5735 29.0683V26.7036C37.5735 26.5725 37.5786 26.4716 37.5836 26.401C37.5887 26.3305 37.6038 26.2397 37.629 26.1237C37.6542 26.0078 37.6946 25.917 37.7551 25.8565C37.8156 25.796 37.9013 25.7304 38.0021 25.6599C38.103 25.5893 38.2391 25.5389 38.4105 25.5136C38.582 25.4834 38.7836 25.4683 39.0156 25.4683C39.2475 25.4683 39.4492 25.4834 39.6206 25.5136C39.7921 25.5439 39.9282 25.5943 40.029 25.6599C40.1299 25.7304 40.2105 25.796 40.2761 25.8565C40.3416 25.917 40.382 26.0078 40.4021 26.1237C40.4223 26.2397 40.4425 26.3305 40.4475 26.401C40.4526 26.4716 40.4576 26.5725 40.4576 26.7036V27.1221H39.782V26.7036C39.782 26.6279 39.782 26.5725 39.7769 26.5372C39.7719 26.5019 39.7668 26.4515 39.7517 26.396C39.7366 26.3405 39.7164 26.2952 39.6811 26.27C39.6509 26.2397 39.6055 26.2094 39.55 26.1792C39.4946 26.1489 39.424 26.1237 39.3332 26.1136C39.2425 26.1036 39.1366 26.0935 39.0156 26.0935C38.9097 26.0935 38.8139 26.0985 38.7332 26.1136C38.6526 26.1288 38.587 26.1389 38.5315 26.154C38.4811 26.1691 38.4357 26.1943 38.3954 26.2296C38.3551 26.2649 38.3299 26.2952 38.3147 26.3204C38.2996 26.3456 38.2845 26.3859 38.2744 26.4363C38.2643 26.4868 38.2593 26.5321 38.2593 26.5624C38.2593 26.5926 38.2593 26.6431 38.2593 26.7036V29.0683C38.2593 29.1338 38.2593 29.1792 38.2593 29.2095C38.2593 29.2397 38.2643 29.2851 38.2744 29.3355C38.2845 29.3859 38.2996 29.4263 38.3147 29.4515C38.3299 29.4767 38.3601 29.507 38.3954 29.5423C38.4307 29.5775 38.4761 29.6028 38.5315 29.6179C38.582 29.633 38.6526 29.6481 38.7332 29.6582C38.8139 29.6683 38.9097 29.6784 39.0156 29.6784C39.1416 29.6784 39.2475 29.6733 39.3332 29.6582C39.424 29.6481 39.4946 29.6229 39.55 29.5927C39.6055 29.5624 39.6509 29.5322 39.6811 29.5019C39.7114 29.4717 39.7366 29.4313 39.7517 29.3759C39.7668 29.3204 39.7719 29.275 39.7769 29.2347C39.782 29.1994 39.782 29.1439 39.782 29.0683V28.6498Z"
          fill="white"/>
    <path d="M46.4173 28.1955H44.2189V29.0678C44.2189 29.1334 44.2189 29.1787 44.2189 29.209C44.2189 29.2392 44.224 29.2846 44.2341 29.335C44.2441 29.3855 44.2593 29.4258 44.2744 29.451C44.2895 29.4762 44.3198 29.5065 44.3551 29.5418C44.3904 29.5771 44.4357 29.6023 44.4912 29.6174C44.5416 29.6325 44.6122 29.6476 44.6929 29.6577C44.7736 29.6678 44.8694 29.6779 44.9752 29.6779C45.1013 29.6779 45.2072 29.6729 45.2929 29.6577C45.3836 29.6476 45.4542 29.6224 45.5097 29.5922C45.5652 29.5619 45.6105 29.5317 45.6408 29.5014C45.671 29.4712 45.6963 29.4308 45.7114 29.3754C45.7265 29.3199 45.7315 29.2745 45.7366 29.2342C45.7416 29.1989 45.7416 29.1434 45.7416 29.0678V28.6897H46.4173V29.0678C46.4173 29.1989 46.4122 29.2997 46.4072 29.3703C46.4021 29.4409 46.387 29.5317 46.3618 29.6476C46.3366 29.7636 46.2963 29.8544 46.2358 29.9149C46.1752 29.9754 46.0895 30.0409 45.9887 30.1115C45.8878 30.1821 45.7517 30.2325 45.5803 30.2577C45.4089 30.288 45.2072 30.3031 44.9752 30.3031C44.7433 30.3031 44.5416 30.288 44.3702 30.2577C44.1988 30.2275 44.0626 30.1771 43.9618 30.1115C43.8609 30.0409 43.7803 29.9754 43.7147 29.9149C43.6542 29.8544 43.6088 29.7636 43.5887 29.6476C43.5685 29.5317 43.5483 29.4409 43.5433 29.3703C43.5382 29.2997 43.5332 29.1989 43.5332 29.0678V26.7031C43.5332 26.572 43.5382 26.4711 43.5433 26.4006C43.5483 26.33 43.5635 26.2392 43.5887 26.1232C43.6139 26.0073 43.6542 25.9165 43.7147 25.856C43.7752 25.7955 43.8609 25.73 43.9618 25.6594C44.0626 25.5888 44.1988 25.5384 44.3702 25.5132C44.5416 25.4829 44.7433 25.4678 44.9752 25.4678C45.2072 25.4678 45.4089 25.4829 45.5803 25.5132C45.7517 25.5434 45.8878 25.5938 45.9887 25.6594C46.0895 25.73 46.1702 25.7955 46.2358 25.856C46.3013 25.9165 46.3416 26.0073 46.3618 26.1232C46.382 26.2392 46.4021 26.33 46.4072 26.4006C46.4122 26.4711 46.4173 26.572 46.4173 26.7031V28.1955ZM44.2189 26.7031V27.5754H45.7416V26.7031C45.7416 26.6274 45.7416 26.572 45.7366 26.5367C45.7315 26.5014 45.7265 26.451 45.7114 26.3955C45.6963 26.3401 45.6761 26.2947 45.6408 26.2695C45.6105 26.2392 45.5652 26.209 45.5097 26.1787C45.4542 26.1485 45.3836 26.1232 45.2929 26.1132C45.2021 26.1031 45.0962 26.093 44.9752 26.093C44.8694 26.093 44.7736 26.098 44.6929 26.1132C44.6122 26.1283 44.5467 26.1384 44.4912 26.1535C44.4408 26.1686 44.3954 26.1938 44.3551 26.2291C44.3147 26.2644 44.2895 26.2947 44.2744 26.3199C44.2593 26.3451 44.2441 26.3854 44.2341 26.4358C44.224 26.4863 44.2189 26.5316 44.2189 26.5619C44.2189 26.5922 44.2189 26.6375 44.2189 26.7031Z"
          fill="white"/>
    <path d="M51.535 25.5186L52.7602 30.2581H52.0594L51.0005 26.1488H50.9653L49.9064 30.2581H49.2056L50.4257 25.5186H51.535Z"
          fill="white"/>
    <path d="M57.0762 30.2527H55.6392V25.5132H56.3149V27.4594H57.0813C57.3132 27.4594 57.5149 27.4745 57.6863 27.4998C57.8577 27.525 57.9939 27.5754 58.0947 27.6359C58.1955 27.6964 58.2762 27.7619 58.3418 27.8224C58.4023 27.883 58.4477 27.9687 58.4678 28.0746C58.493 28.1855 58.5082 28.2762 58.5132 28.3418C58.5182 28.4073 58.5233 28.5082 58.5233 28.6393V29.0578C58.5233 29.1888 58.5182 29.2897 58.5132 29.3552C58.5082 29.4208 58.493 29.5115 58.4678 29.6225C58.4426 29.7334 58.4023 29.8191 58.3418 29.8746C58.2813 29.9351 58.1955 29.9956 58.0947 30.0611C57.9939 30.1267 57.8577 30.1721 57.6863 30.1973C57.5048 30.2426 57.3031 30.2527 57.0762 30.2527ZM57.8325 28.6493C57.8325 28.5737 57.8325 28.5183 57.8275 28.488C57.8224 28.4578 57.8174 28.4124 57.8023 28.3569C57.7871 28.3014 57.767 28.2662 57.7317 28.2409C57.7014 28.2157 57.656 28.1905 57.6056 28.1603C57.5552 28.13 57.4796 28.1149 57.3888 28.1048C57.2981 28.0947 57.1922 28.0897 57.0661 28.0897H56.2997V29.6275H57.0661C57.1922 29.6275 57.2981 29.6225 57.3888 29.6124C57.4796 29.6023 57.5502 29.5821 57.6056 29.5569C57.6611 29.5317 57.7014 29.5015 57.7317 29.4762C57.7619 29.451 57.7871 29.4107 57.8023 29.3603C57.8174 29.3099 57.8224 29.2645 57.8275 29.2292C57.8325 29.1939 57.8325 29.1384 57.8325 29.0678V28.6493Z"
          fill="white"/>
    <path d="M64.8561 25.5186L63.6965 27.8883L64.8561 30.2531H64.1049L63.0965 28.1959H63.0612L62.0527 30.2531H61.3015L62.4561 27.8883L61.3015 25.5186H62.0527L63.0612 27.5757H63.0965L64.1049 25.5186H64.8561Z"
          fill="white"/>
    <path d="M68.562 25.5132C68.7335 25.4829 68.9352 25.4678 69.1671 25.4678C69.399 25.4678 69.6007 25.4829 69.7721 25.5132C69.9436 25.5434 70.0797 25.5938 70.1806 25.6594C70.2814 25.73 70.3621 25.7955 70.4276 25.856C70.4932 25.9165 70.5335 26.0073 70.5537 26.1232C70.5738 26.2392 70.594 26.33 70.599 26.4006C70.6041 26.4711 70.6091 26.572 70.6091 26.7031V29.0678C70.6091 29.1989 70.6041 29.2997 70.599 29.3703C70.594 29.4409 70.5789 29.5317 70.5537 29.6476C70.5284 29.7636 70.4881 29.8544 70.4276 29.9149C70.3671 29.9754 70.2814 30.0409 70.1806 30.1115C70.0797 30.1821 69.9436 30.2325 69.7721 30.2577C69.6007 30.288 69.399 30.3031 69.1671 30.3031C68.9352 30.3031 68.7335 30.288 68.562 30.2577C68.3906 30.2275 68.2545 30.1771 68.1536 30.1115C68.0528 30.0409 67.9721 29.9754 67.9066 29.9149C67.8461 29.8544 67.8007 29.7636 67.7805 29.6476C67.7604 29.5317 67.7402 29.4409 67.7351 29.3703C67.7301 29.2997 67.7251 29.1989 67.7251 29.0678V26.7031C67.7251 26.572 67.7301 26.4711 67.7351 26.4006C67.7402 26.33 67.7553 26.2392 67.7805 26.1232C67.8057 26.0073 67.8461 25.9165 67.9066 25.856C67.9671 25.7955 68.0528 25.73 68.1536 25.6594C68.2545 25.5938 68.3906 25.5434 68.562 25.5132ZM69.9284 29.0678V26.7031C69.9284 26.6274 69.9284 26.572 69.9234 26.5367C69.9184 26.5014 69.9133 26.451 69.8982 26.3955C69.8831 26.3401 69.8629 26.2947 69.8276 26.2695C69.7974 26.2392 69.752 26.209 69.6965 26.1787C69.641 26.1485 69.5705 26.1232 69.4797 26.1132C69.3889 26.1031 69.2831 26.093 69.1621 26.093C69.0562 26.093 68.9604 26.098 68.8797 26.1132C68.799 26.1283 68.7335 26.1384 68.678 26.1535C68.6276 26.1686 68.5822 26.1938 68.5419 26.2291C68.5015 26.2644 68.4763 26.2947 68.4612 26.3199C68.4461 26.3451 68.431 26.3854 68.4209 26.4358C68.4108 26.4863 68.4057 26.5316 68.4057 26.5619C68.4057 26.5922 68.4057 26.6426 68.4057 26.7031V29.0678C68.4057 29.1334 68.4057 29.1787 68.4057 29.209C68.4057 29.2392 68.4108 29.2846 68.4209 29.335C68.431 29.3855 68.4461 29.4258 68.4612 29.451C68.4763 29.4762 68.5066 29.5065 68.5419 29.5418C68.5772 29.5771 68.6226 29.6023 68.678 29.6174C68.7284 29.6325 68.799 29.6476 68.8797 29.6577C68.9604 29.6678 69.0562 29.6779 69.1621 29.6779C69.2881 29.6779 69.394 29.6729 69.4797 29.6577C69.5705 29.6476 69.641 29.6224 69.6965 29.5922C69.752 29.5619 69.7974 29.5317 69.8276 29.5014C69.8579 29.4712 69.8831 29.4308 69.8982 29.3754C69.9133 29.3199 69.9184 29.2745 69.9234 29.2342C69.9284 29.1989 69.9284 29.1434 69.9284 29.0678Z"
          fill="white"/>
    <path d="M76.5638 26.955C76.5638 27.5651 76.3117 27.8676 75.8025 27.8676V27.9029C76.3067 27.9029 76.5638 28.2055 76.5638 28.8155V29.0676C76.5638 29.1987 76.5588 29.2996 76.5538 29.3702C76.5487 29.4408 76.5336 29.5315 76.5084 29.6475C76.4832 29.7635 76.4428 29.8542 76.3823 29.9147C76.3218 29.9752 76.2361 30.0408 76.1353 30.1114C76.0344 30.1819 75.8983 30.2324 75.7269 30.2576C75.5554 30.2878 75.3537 30.303 75.1218 30.303C74.8899 30.303 74.6882 30.2878 74.5168 30.2576C74.3453 30.2273 74.2092 30.1769 74.1084 30.1114C74.0075 30.0408 73.9268 29.9752 73.8613 29.9147C73.8008 29.8542 73.7554 29.7635 73.7352 29.6475C73.7151 29.5315 73.6999 29.4408 73.6899 29.3702C73.6848 29.2996 73.6798 29.1987 73.6798 29.0676V28.6895H74.3554V29.0676C74.3554 29.1332 74.3554 29.1786 74.3554 29.2088C74.3554 29.2391 74.3605 29.2845 74.3705 29.3349C74.3806 29.3853 74.3958 29.4256 74.4109 29.4508C74.431 29.4761 74.4563 29.5063 74.4916 29.5416C74.5268 29.5769 74.5722 29.6021 74.6277 29.6172C74.6781 29.6324 74.7487 29.6475 74.8294 29.6576C74.91 29.6677 75.0058 29.6777 75.1117 29.6777C75.2176 29.6777 75.3134 29.6727 75.3941 29.6576C75.4748 29.6475 75.5403 29.6324 75.5958 29.6172C75.6462 29.6021 75.6916 29.5769 75.7319 29.5416C75.7722 29.5063 75.7974 29.4761 75.8126 29.4508C75.8277 29.4256 75.8428 29.3853 75.8529 29.3349C75.863 29.2845 75.868 29.2391 75.868 29.2088C75.868 29.1786 75.868 29.1282 75.868 29.0676V28.8155C75.868 28.745 75.868 28.6895 75.868 28.6592C75.868 28.629 75.863 28.5836 75.8529 28.5281C75.8428 28.4727 75.8277 28.4374 75.8126 28.4122C75.7924 28.387 75.7672 28.3567 75.7319 28.3214C75.6966 28.2861 75.6512 28.2609 75.5958 28.2508C75.5403 28.2408 75.4748 28.2256 75.3941 28.2155C75.3134 28.2055 75.2226 28.2004 75.1117 28.2004H74.5621V27.5752H75.1268C75.2327 27.5752 75.3285 27.5702 75.4092 27.5601C75.4899 27.55 75.5554 27.5349 75.6109 27.5248C75.6664 27.5147 75.7117 27.4844 75.747 27.4542C75.7823 27.4239 75.8075 27.3886 75.8277 27.3634C75.8479 27.3382 75.8579 27.2979 75.868 27.2475C75.8781 27.197 75.8832 27.1517 75.8832 27.1164C75.8832 27.0811 75.8832 27.0307 75.8832 26.9601V26.708C75.8832 26.6424 75.8832 26.597 75.8832 26.5668C75.8832 26.5365 75.8781 26.4912 75.868 26.4407C75.8579 26.3903 75.8428 26.35 75.8277 26.3248C75.8126 26.2996 75.7823 26.2693 75.747 26.234C75.7117 26.1987 75.6664 26.1735 75.6109 26.1584C75.5605 26.1433 75.4899 26.1281 75.4092 26.118C75.3285 26.108 75.2327 26.0979 75.1268 26.0979C75.021 26.0979 74.9252 26.1029 74.8445 26.118C74.7638 26.1332 74.6983 26.1433 74.6428 26.1584C74.5924 26.1735 74.547 26.1987 74.5067 26.234C74.4663 26.2693 74.4411 26.2996 74.426 26.3248C74.4058 26.35 74.3957 26.3903 74.3857 26.4407C74.3756 26.4912 74.3705 26.5365 74.3705 26.5668C74.3705 26.597 74.3705 26.6475 74.3705 26.708V27.0861H73.6949V26.708C73.6949 26.5769 73.6999 26.476 73.705 26.4054C73.71 26.3349 73.7252 26.2441 73.7504 26.1281C73.7756 26.0122 73.8159 25.9214 73.8764 25.8609C73.9369 25.8004 74.0226 25.7348 74.1235 25.6643C74.2243 25.5937 74.3605 25.5432 74.5319 25.518C74.7033 25.4878 74.905 25.4727 75.1369 25.4727C75.3689 25.4727 75.5706 25.4878 75.742 25.518C75.9134 25.5483 76.0495 25.5987 76.1504 25.6643C76.2512 25.7348 76.3319 25.8004 76.3975 25.8609C76.458 25.9214 76.5033 26.0122 76.5235 26.1281C76.5437 26.2441 76.5638 26.3349 76.5689 26.4054C76.5739 26.476 76.579 26.5769 76.579 26.708V26.955H76.5638Z"
          fill="white"/>
    <path d="M82.1908 25.5186V26.1488H81.0865V30.2581H80.4109V26.1488H79.3117V25.5186H82.1908Z" fill="white"/>
    <path d="M87.853 28.1955H85.6547V29.0678C85.6547 29.1334 85.6547 29.1787 85.6547 29.209C85.6547 29.2392 85.6597 29.2846 85.6698 29.335C85.6799 29.3855 85.695 29.4258 85.7101 29.451C85.7252 29.4762 85.7555 29.5065 85.7908 29.5418C85.8261 29.5771 85.8715 29.6023 85.9269 29.6174C85.9773 29.6325 86.0479 29.6476 86.1286 29.6577C86.2093 29.6678 86.3051 29.6779 86.411 29.6779C86.537 29.6779 86.6429 29.6729 86.7286 29.6577C86.8194 29.6476 86.89 29.6224 86.9454 29.5922C87.0009 29.5619 87.0463 29.5317 87.0765 29.5014C87.1068 29.4712 87.132 29.4308 87.1471 29.3754C87.1622 29.3199 87.1673 29.2745 87.1723 29.2342C87.1774 29.1989 87.1774 29.1434 87.1774 29.0678V28.6897H87.853V29.0678C87.853 29.1989 87.848 29.2997 87.8429 29.3703C87.8379 29.4409 87.8227 29.5317 87.7975 29.6476C87.7723 29.7636 87.732 29.8544 87.6715 29.9149C87.611 29.9754 87.5253 30.0409 87.4244 30.1115C87.3236 30.1821 87.1874 30.2325 87.016 30.2577C86.8446 30.288 86.6429 30.3031 86.411 30.3031C86.179 30.3031 85.9773 30.288 85.8059 30.2577C85.6345 30.2275 85.4983 30.1771 85.3975 30.1115C85.2967 30.0409 85.216 29.9754 85.1504 29.9149C85.0899 29.8544 85.0446 29.7636 85.0244 29.6476C85.0042 29.5317 84.9841 29.4409 84.979 29.3703C84.974 29.2997 84.9689 29.1989 84.9689 29.0678V26.7031C84.9689 26.572 84.974 26.4711 84.979 26.4006C84.9841 26.33 84.9992 26.2392 85.0244 26.1232C85.0496 26.0073 85.0899 25.9165 85.1504 25.856C85.211 25.7955 85.2967 25.73 85.3975 25.6594C85.4983 25.5888 85.6345 25.5384 85.8059 25.5132C85.9773 25.4829 86.179 25.4678 86.411 25.4678C86.6429 25.4678 86.8446 25.4829 87.016 25.5132C87.1874 25.5434 87.3236 25.5938 87.4244 25.6594C87.5253 25.73 87.6059 25.7955 87.6715 25.856C87.737 25.9165 87.7774 26.0073 87.7975 26.1232C87.8177 26.2392 87.8379 26.33 87.8429 26.4006C87.848 26.4711 87.853 26.572 87.853 26.7031V28.1955ZM85.6547 26.7031V27.5754H87.1774V26.7031C87.1774 26.6274 87.1774 26.572 87.1723 26.5367C87.1673 26.5014 87.1622 26.451 87.1471 26.3955C87.132 26.3401 87.1118 26.2947 87.0765 26.2695C87.0463 26.2392 87.0009 26.209 86.9454 26.1787C86.89 26.1485 86.8194 26.1232 86.7286 26.1132C86.6379 26.1031 86.532 26.093 86.411 26.093C86.3051 26.093 86.2093 26.098 86.1286 26.1132C86.0479 26.1283 85.9824 26.1384 85.9269 26.1535C85.8765 26.1686 85.8311 26.1938 85.7908 26.2291C85.7504 26.2644 85.7252 26.2947 85.7101 26.3199C85.695 26.3451 85.6799 26.3854 85.6698 26.4358C85.6597 26.4863 85.6547 26.5316 85.6547 26.5619C85.6547 26.5922 85.6547 26.6375 85.6547 26.7031Z"
          fill="white"/>
    <path d="M94.2816 25.5186L93.122 27.8883L94.2816 30.2531H93.5304L92.522 28.1959H92.4867L91.4783 30.2531H90.727L91.8816 27.8883L90.727 25.5186H91.4783L92.4867 27.5757H92.522L93.5304 25.5186H94.2816Z"
          fill="white"/>
    <path d="M99.4397 25.5186H100.115V30.2581H99.4397V28.2009H97.917V30.2581H97.2413V25.5186H97.917V27.5757H99.4397V25.5186Z"
          fill="white"/>
    <path d="M105.273 25.5186H106.458V30.2581H105.783V26.1488H105.747L104.593 30.2581H103.413V25.5186H104.088V29.6278H104.124L105.273 25.5186Z"
          fill="white"/>
    <path d="M112.973 25.5182L111.813 27.888L112.973 30.2527H112.221L111.213 28.1956H110.431V30.2527H109.756V25.5132H110.431V27.5703H111.213L112.221 25.5132H112.973V25.5182Z"
          fill="white"/>
    <path d="M116.638 25.5132C116.81 25.4829 117.011 25.4678 117.243 25.4678C117.475 25.4678 117.677 25.4829 117.848 25.5132C118.02 25.5434 118.156 25.5938 118.257 25.6594C118.357 25.73 118.438 25.7955 118.504 25.856C118.564 25.9165 118.61 26.0073 118.63 26.1232C118.65 26.2392 118.67 26.33 118.675 26.4006C118.68 26.4711 118.685 26.572 118.685 26.7031V30.2527H118.01V29.7838H117.974C117.954 29.8443 117.939 29.8947 117.919 29.93C117.904 29.9653 117.868 30.0107 117.823 30.0661C117.773 30.1166 117.717 30.1619 117.647 30.1922C117.576 30.2224 117.48 30.2477 117.354 30.2729C117.228 30.293 117.082 30.3082 116.91 30.3082C116.759 30.3082 116.623 30.293 116.507 30.2678C116.391 30.2426 116.29 30.2073 116.215 30.172C116.139 30.1367 116.073 30.0813 116.018 30.0056C115.963 29.93 115.922 29.8695 115.897 29.814C115.872 29.7586 115.852 29.6779 115.836 29.5771C115.821 29.4762 115.816 29.3955 115.816 29.335C115.816 29.2745 115.816 29.1888 115.816 29.0779V28.8258C115.816 28.7754 115.816 28.73 115.816 28.6947C115.816 28.6594 115.826 28.609 115.836 28.5334C115.847 28.4628 115.862 28.3972 115.882 28.3468C115.902 28.2964 115.932 28.2308 115.978 28.1602C116.023 28.0896 116.073 28.0291 116.134 27.9787C116.194 27.9283 116.275 27.8779 116.371 27.8275C116.467 27.777 116.578 27.7367 116.699 27.7064L118.01 27.3737V26.7031C118.01 26.6375 118.01 26.5922 118.01 26.5619C118.01 26.5316 118.005 26.4863 117.994 26.4358C117.984 26.3854 117.969 26.3451 117.954 26.3199C117.939 26.2947 117.909 26.2644 117.873 26.2291C117.838 26.1938 117.793 26.1686 117.737 26.1535C117.687 26.1384 117.616 26.1232 117.536 26.1132C117.455 26.1031 117.359 26.093 117.253 26.093C117.147 26.093 117.052 26.098 116.971 26.1132C116.89 26.1283 116.825 26.1384 116.769 26.1535C116.719 26.1686 116.673 26.1938 116.633 26.2291C116.593 26.2644 116.568 26.2947 116.552 26.3199C116.532 26.3451 116.522 26.3854 116.512 26.4358C116.502 26.4863 116.497 26.5316 116.497 26.5619C116.497 26.5922 116.497 26.6426 116.497 26.7031V27.0812H115.821V26.7031C115.821 26.572 115.826 26.4711 115.831 26.4006C115.836 26.33 115.852 26.2392 115.877 26.1232C115.902 26.0073 115.942 25.9165 116.003 25.856C116.063 25.7955 116.149 25.73 116.25 25.6594C116.331 25.5938 116.467 25.5434 116.638 25.5132ZM117.999 29.0678V28.0191L116.9 28.2913C116.799 28.3165 116.719 28.3518 116.658 28.3972C116.598 28.4426 116.552 28.493 116.532 28.5535C116.507 28.609 116.492 28.6594 116.487 28.6897C116.482 28.7249 116.477 28.7653 116.477 28.8157V29.0678C116.477 29.1334 116.477 29.1787 116.477 29.209C116.477 29.2392 116.482 29.2846 116.492 29.335C116.502 29.3855 116.517 29.4258 116.532 29.451C116.552 29.4762 116.578 29.5065 116.613 29.5418C116.648 29.5771 116.694 29.6023 116.749 29.6174C116.799 29.6325 116.87 29.6476 116.951 29.6577C117.031 29.6678 117.127 29.6779 117.233 29.6779C117.339 29.6779 117.435 29.6729 117.515 29.6577C117.596 29.6476 117.662 29.6325 117.717 29.6174C117.768 29.6023 117.813 29.5771 117.853 29.5418C117.894 29.5065 117.919 29.4762 117.934 29.451C117.949 29.4258 117.964 29.3855 117.974 29.335C117.984 29.2846 117.989 29.2392 117.989 29.209C117.989 29.1787 117.999 29.1334 117.999 29.0678Z"
          fill="white"/>
    <path d="M129.894 29.6278H130.393V31.1001H129.717V30.2531H126.843V31.1001H126.168V29.6278H126.667L127.726 25.5186H128.835L129.894 29.6278ZM128.26 26.1438L127.363 29.6278H129.188L128.29 26.1438H128.26Z"
          fill="white"/>
    <path d="M135.082 25.5186L136.307 30.2581H135.606L134.548 26.1488H134.512L133.453 30.2581H132.753L133.973 25.5186H135.082Z"
          fill="white"/>
    <path d="M140.538 25.5186H141.974V30.2581H141.299V28.6497H140.638L139.852 30.2581H139.101L139.912 28.5993C139.827 28.5841 139.746 28.5589 139.67 28.5337C139.595 28.5085 139.534 28.4782 139.479 28.453C139.423 28.4228 139.378 28.3875 139.338 28.3421C139.297 28.2967 139.262 28.2564 139.237 28.2261C139.211 28.1909 139.186 28.1455 139.171 28.09C139.151 28.0295 139.141 27.9841 139.131 27.9488C139.121 27.9135 139.116 27.8581 139.111 27.7875C139.106 27.7169 139.101 27.6665 139.101 27.6261C139.101 27.5908 139.101 27.5354 139.101 27.4648V26.7034C139.101 26.5723 139.106 26.4715 139.111 26.406C139.116 26.3404 139.131 26.2497 139.156 26.1387C139.181 26.0278 139.222 25.9421 139.282 25.8866C139.343 25.8261 139.428 25.7656 139.529 25.7001C139.63 25.6345 139.766 25.5891 139.938 25.5639C140.104 25.5286 140.306 25.5186 140.538 25.5186ZM141.304 28.0194V26.1438H140.538C140.411 26.1438 140.306 26.1488 140.22 26.1589C140.129 26.169 140.059 26.1891 140.003 26.2144C139.948 26.2396 139.907 26.2698 139.877 26.295C139.847 26.3202 139.822 26.3606 139.806 26.411C139.791 26.4614 139.786 26.5068 139.781 26.5421C139.776 26.5774 139.776 26.6329 139.776 26.7034V27.4648C139.776 27.5404 139.776 27.5959 139.781 27.6261C139.786 27.6614 139.791 27.7068 139.806 27.7572C139.822 27.8077 139.842 27.848 139.877 27.8732C139.907 27.8984 139.953 27.9236 140.003 27.9539C140.059 27.9791 140.129 27.9993 140.22 28.0093C140.311 28.0194 140.417 28.0245 140.538 28.0245H141.304V28.0194Z"
          fill="white"/>
    <path d="M153.233 29.6278H153.733V31.1001H153.057V30.2531H150.183V31.1001H149.507V29.6278H150.007L151.065 25.5186H152.175L153.233 29.6278ZM151.605 26.1438L150.707 29.6278H152.533L151.635 26.1438H151.605Z"
          fill="white"/>
    <path d="M159.314 28.1955H157.116V29.0678C157.116 29.1334 157.116 29.1787 157.116 29.209C157.116 29.2392 157.121 29.2846 157.131 29.335C157.141 29.3855 157.156 29.4258 157.171 29.451C157.186 29.4762 157.217 29.5065 157.252 29.5418C157.287 29.5771 157.333 29.6023 157.388 29.6174C157.439 29.6325 157.509 29.6476 157.59 29.6577C157.67 29.6678 157.766 29.6779 157.872 29.6779C157.998 29.6779 158.104 29.6729 158.19 29.6577C158.281 29.6476 158.351 29.6224 158.407 29.5922C158.462 29.5619 158.507 29.5317 158.538 29.5014C158.568 29.4712 158.593 29.4308 158.608 29.3754C158.623 29.3199 158.628 29.2745 158.633 29.2342C158.639 29.1989 158.639 29.1434 158.639 29.0678V28.6897H159.314V29.0678C159.314 29.1989 159.309 29.2997 159.304 29.3703C159.299 29.4409 159.284 29.5317 159.259 29.6476C159.233 29.7636 159.193 29.8544 159.133 29.9149C159.072 29.9754 158.986 30.0409 158.886 30.1115C158.785 30.1821 158.649 30.2325 158.477 30.2577C158.306 30.288 158.104 30.3031 157.872 30.3031C157.64 30.3031 157.439 30.288 157.267 30.2577C157.096 30.2275 156.96 30.1771 156.859 30.1115C156.758 30.0409 156.677 29.9754 156.612 29.9149C156.551 29.8544 156.506 29.7636 156.486 29.6476C156.465 29.5317 156.445 29.4409 156.44 29.3703C156.435 29.2997 156.43 29.1989 156.43 29.0678V26.7031C156.43 26.572 156.435 26.4711 156.44 26.4006C156.445 26.33 156.46 26.2392 156.486 26.1232C156.511 26.0073 156.551 25.9165 156.612 25.856C156.672 25.7955 156.758 25.73 156.859 25.6594C156.96 25.5888 157.096 25.5384 157.267 25.5132C157.439 25.4829 157.64 25.4678 157.872 25.4678C158.104 25.4678 158.306 25.4829 158.477 25.5132C158.649 25.5434 158.785 25.5938 158.886 25.6594C158.986 25.73 159.067 25.7955 159.133 25.856C159.198 25.9165 159.239 26.0073 159.259 26.1232C159.279 26.2392 159.299 26.33 159.304 26.4006C159.309 26.4711 159.314 26.572 159.314 26.7031V28.1955ZM157.116 26.7031V27.5754H158.639V26.7031C158.639 26.6274 158.639 26.572 158.633 26.5367C158.628 26.5014 158.623 26.451 158.608 26.3955C158.593 26.3401 158.573 26.2947 158.538 26.2695C158.507 26.2392 158.462 26.209 158.407 26.1787C158.351 26.1485 158.281 26.1232 158.19 26.1132C158.099 26.1031 157.993 26.093 157.872 26.093C157.766 26.093 157.67 26.098 157.59 26.1132C157.509 26.1283 157.444 26.1384 157.388 26.1535C157.338 26.1686 157.292 26.1938 157.252 26.2291C157.212 26.2644 157.186 26.2947 157.171 26.3199C157.156 26.3451 157.141 26.3854 157.131 26.4358C157.121 26.4863 157.116 26.5316 157.116 26.5619C157.116 26.5922 157.116 26.6375 157.116 26.7031Z"
          fill="white"/>
    <path d="M164.432 25.5186L165.657 30.2581H164.956L163.897 26.1488H163.862L162.803 30.2581H162.102L163.323 25.5186H164.432Z"
          fill="white"/>
    <path d="M169.242 25.5132C169.414 25.4829 169.615 25.4678 169.847 25.4678C170.079 25.4678 170.281 25.4829 170.452 25.5132C170.624 25.5434 170.76 25.5938 170.861 25.6594C170.961 25.73 171.042 25.7955 171.108 25.856C171.173 25.9165 171.214 26.0073 171.234 26.1232C171.254 26.2392 171.269 26.33 171.279 26.4006C171.289 26.4711 171.289 26.572 171.289 26.7031V30.2527H170.614V29.7838H170.578C170.558 29.8443 170.543 29.8947 170.523 29.93C170.508 29.9653 170.472 30.0107 170.427 30.0661C170.377 30.1166 170.321 30.1619 170.25 30.1922C170.18 30.2224 170.084 30.2477 169.958 30.2729C169.832 30.293 169.686 30.3082 169.514 30.3082C169.363 30.3082 169.227 30.293 169.111 30.2678C168.995 30.2426 168.894 30.2073 168.819 30.172C168.743 30.1367 168.677 30.0813 168.622 30.0056C168.566 29.93 168.526 29.8695 168.501 29.814C168.476 29.7586 168.456 29.6779 168.44 29.5771C168.425 29.4762 168.42 29.3955 168.42 29.335C168.42 29.2745 168.42 29.1888 168.42 29.0779V28.8258C168.42 28.7754 168.42 28.73 168.42 28.6947C168.42 28.6594 168.43 28.609 168.44 28.5334C168.45 28.4628 168.466 28.3972 168.486 28.3468C168.506 28.2964 168.536 28.2308 168.582 28.1602C168.627 28.0896 168.677 28.0291 168.738 27.9787C168.798 27.9283 168.879 27.8779 168.975 27.8275C169.071 27.777 169.182 27.7367 169.303 27.7064L170.614 27.3737V26.7031C170.614 26.6375 170.614 26.5922 170.614 26.5619C170.614 26.5316 170.608 26.4863 170.598 26.4358C170.588 26.3854 170.573 26.3451 170.558 26.3199C170.538 26.2947 170.513 26.2644 170.477 26.2291C170.442 26.1938 170.397 26.1686 170.341 26.1535C170.291 26.1384 170.22 26.1232 170.14 26.1132C170.059 26.1031 169.963 26.093 169.857 26.093C169.751 26.093 169.656 26.098 169.575 26.1132C169.494 26.1283 169.429 26.1384 169.373 26.1535C169.323 26.1686 169.277 26.1938 169.237 26.2291C169.197 26.2644 169.171 26.2947 169.156 26.3199C169.136 26.3451 169.126 26.3854 169.116 26.4358C169.106 26.4863 169.101 26.5316 169.101 26.5619C169.101 26.5922 169.101 26.6426 169.101 26.7031V27.0812H168.405V26.7031C168.405 26.572 168.41 26.4711 168.415 26.4006C168.42 26.33 168.435 26.2392 168.461 26.1232C168.486 26.0073 168.526 25.9165 168.587 25.856C168.647 25.7955 168.733 25.73 168.834 25.6594C168.935 25.5938 169.071 25.5434 169.242 25.5132ZM170.603 29.0678V28.0191L169.504 28.2913C169.403 28.3165 169.323 28.3518 169.262 28.3972C169.202 28.4426 169.156 28.493 169.136 28.5535C169.111 28.609 169.096 28.6594 169.091 28.6897C169.086 28.7249 169.081 28.7653 169.081 28.8157V29.0678C169.081 29.1334 169.081 29.1787 169.081 29.209C169.081 29.2392 169.086 29.2846 169.096 29.335C169.106 29.3855 169.121 29.4258 169.136 29.451C169.156 29.4762 169.182 29.5065 169.217 29.5418C169.252 29.5771 169.298 29.6023 169.353 29.6174C169.403 29.6325 169.474 29.6476 169.555 29.6577C169.635 29.6678 169.731 29.6779 169.837 29.6779C169.943 29.6779 170.039 29.6729 170.119 29.6577C170.2 29.6476 170.266 29.6325 170.321 29.6174C170.371 29.6023 170.417 29.5771 170.457 29.5418C170.498 29.5065 170.523 29.4762 170.538 29.451C170.558 29.4258 170.568 29.3855 170.578 29.335C170.588 29.2846 170.593 29.2392 170.593 29.209C170.593 29.1787 170.603 29.1334 170.603 29.0678Z"
          fill="white"/>
</svg>
