<svg xmlns="http://www.w3.org/2000/svg" display="none">

    <symbol id="menu1" viewBox="0 0 18 15">
        <path d="M14.2041 11.25H7.5124C6.5474 11.25 5.69178 10.6118 5.43063 9.69751L3.16879 1.97175C3.08844 1.692 2.82134 1.5 2.51629 1.5H0.744023C0.332578 1.5 0 1.164 0 0.750001C0 0.336 0.332578 0 0.744023 0H2.51629C3.48128 0 4.33617 0.638251 4.59732 1.5525L5.02067 3H16.4005C16.8648 3 17.3052 3.22275 17.5783 3.59625C17.8491 3.96675 17.9272 4.43025 17.7926 4.86825L16.2577 9.77926C15.9571 10.6658 15.1334 11.25 14.2041 11.25Z"/>
        <path d="M8.18425 15C7.3636 15 6.69621 14.3272 6.69621 13.5C6.69621 12.6727 7.3636 12 8.18425 12C9.00491 12 9.6723 12.6727 9.6723 13.5C9.6723 14.3272 9.00491 15 8.18425 15Z"/>
        <path d="M13.3924 15C12.5718 15 11.9044 14.3272 11.9044 13.5C11.9044 12.6727 12.5718 12 13.3924 12C14.2131 12 14.8805 12.6727 14.8805 13.5C14.8805 14.3272 14.2131 15 13.3924 15Z"/>
    </symbol>

    <symbol id="menu2" viewBox="0 0 16 15">
        <path d="M15.6326 6.66736C15.6078 6.45653 15.3507 6.29793 15.1284 6.29793C14.4099 6.29793 13.7723 5.89457 13.5049 5.27026C13.2319 4.63097 13.408 3.88555 13.9433 3.41583C14.1119 3.26838 14.1325 3.02149 13.9911 2.8501C13.6233 2.40341 13.2054 1.99986 12.749 1.65014C12.5704 1.51314 12.308 1.53221 12.153 1.69627C11.6857 2.19135 10.8462 2.37532 10.1974 2.11643C9.52252 1.84482 9.09655 1.19048 9.1384 0.488133C9.15216 0.267381 8.98343 0.0755618 8.75345 0.0499383C8.1677 -0.0149314 7.57679 -0.0168126 6.98934 0.0455272C6.76228 0.0695289 6.59368 0.256808 6.60121 0.47477C6.62664 1.17024 6.19586 1.81303 5.5275 2.07491C4.88654 2.32537 4.05284 2.14276 3.58644 1.65202C3.43229 1.49037 3.17451 1.47052 2.99472 1.60461C2.52487 1.9573 2.09754 2.36112 1.7263 2.80418C1.58164 2.9764 1.603 3.22602 1.77303 3.37399C2.3189 3.84683 2.49489 4.59867 2.21148 5.24542C1.94088 5.862 1.27157 6.2592 0.505417 6.2592C0.256792 6.25154 0.0798516 6.41132 0.0523849 6.62759C-0.0165195 7.19086 -0.0172655 7.76508 0.0490617 8.33295C0.0738157 8.54469 0.338514 8.70193 0.563267 8.70193C1.24621 8.68533 1.90148 9.08946 2.17675 9.72953C2.45068 10.3688 2.27435 11.1139 1.73817 11.5843C1.57045 11.7317 1.54902 11.978 1.69063 12.1492C2.05475 12.5931 2.47306 12.997 2.93084 13.3497C3.11056 13.4881 3.37193 13.4687 3.52771 13.3044C3.99689 12.8082 4.83628 12.6245 5.4824 12.884C6.15923 13.1548 6.585 13.8091 6.54343 14.5117C6.5298 14.7324 6.69894 14.9248 6.9281 14.9499C7.22786 14.9834 7.52918 15 7.83145 15C8.11833 15 8.40527 14.985 8.69221 14.9545C8.91954 14.9305 9.08787 14.743 9.08021 14.525C9.05396 13.8298 9.4857 13.187 10.1532 12.9256C10.7985 12.6735 11.6284 12.858 12.0951 13.348C12.2501 13.5094 12.5063 13.529 12.6868 13.3954C13.1559 13.0436 13.5824 12.64 13.9553 12.1957C14.1 12.0238 14.0795 11.7739 13.9085 11.6257C13.3628 11.1532 13.1858 10.401 13.4693 9.7549C13.7357 9.14662 14.3801 8.7382 15.0732 8.7382L15.1702 8.74066C15.3952 8.75811 15.602 8.59237 15.6292 8.37278C15.6984 7.809 15.6992 7.23542 15.6326 6.66736ZM7.84088 11.8239C5.34425 11.8239 3.32046 9.88807 3.32046 7.50009C3.32046 5.11211 5.34432 3.17633 7.84088 3.17633C10.3374 3.17633 12.3613 5.11211 12.3613 7.50009C12.3613 8.31064 12.1277 9.06877 11.7219 9.71708L9.74253 7.82373C9.88583 7.50055 9.96152 7.15019 9.96145 6.7886C9.96145 6.08055 9.67315 5.41492 9.14965 4.91432C8.62629 4.41372 7.9304 4.13803 7.19029 4.13803C6.94329 4.13803 6.69745 4.16942 6.4596 4.23137C6.35543 4.25855 6.27025 4.34068 6.24252 4.44051C6.21417 4.54262 6.24611 4.64725 6.32953 4.72711C6.32953 4.72711 7.30673 5.66902 7.63369 5.98169C7.66794 6.01445 7.66787 6.09261 7.66306 6.12077L7.66 6.14133C7.62704 6.48514 7.5635 6.89784 7.51107 7.05645C7.50402 7.06313 7.49737 7.06877 7.49019 7.07565C7.48266 7.08285 7.47574 7.08979 7.46848 7.09693C7.3005 7.1485 6.86238 7.20999 6.49724 7.24126L6.49731 7.23938L6.4809 7.24334C6.47798 7.24366 6.47256 7.24405 6.46537 7.24405C6.4259 7.24405 6.36785 7.23348 6.31508 7.18307C5.97476 6.85756 5.03588 5.96592 5.03588 5.96592C4.95164 5.88562 4.86524 5.86875 4.80766 5.86875C4.67345 5.86875 4.55327 5.96151 4.51543 6.09456C4.25697 7.00942 4.53096 7.99349 5.23065 8.66282C5.75415 9.16348 6.45011 9.43918 7.19036 9.43918C7.56838 9.43918 7.93467 9.36685 8.27248 9.22978L10.2733 11.1436C9.57088 11.5736 8.7367 11.8239 7.84088 11.8239Z"/>
    </symbol>

    <symbol id="menu3" viewBox="0 0 12 15">
        <path d="M5.94874 5.92C7.6323 5.92 9.00194 4.59217 9.00194 2.96C9.00194 1.32783 7.6323 0 5.94874 0C4.26519 0 2.89555 1.32783 2.89555 2.96C2.89555 4.59217 4.26519 5.92 5.94874 5.92Z"/>
        <path d="M10.0457 7.35444C10.0444 7.35404 10.0419 7.35313 10.0406 7.35283C9.64307 7.25869 8.42571 7.09359 8.42571 7.09359C8.28829 7.05258 8.14143 7.12313 8.09199 7.2546L6.2596 12.1288C6.1539 12.4099 5.7437 12.4099 5.638 12.1288L3.8056 7.2546C3.7657 7.14843 3.66234 7.08187 3.55159 7.08187C3.52533 7.08187 2.27364 7.25202 1.85693 7.35247C0.718236 7.62697 0 8.71253 0 9.84384V13.8995C0 14.5073 0.50824 15 1.13515 15H10.7614C11.3883 15 11.8966 14.5073 11.8966 13.8995V9.83035C11.8965 8.70394 11.1501 7.70429 10.0457 7.35444Z"/>
        <path d="M6.63979 7.00066C6.56664 6.92338 6.45975 6.88454 6.3516 6.88454H5.5449C5.43675 6.88454 5.3298 6.92343 5.25671 7.00066C5.14351 7.12025 5.12705 7.29303 5.20743 7.42803L5.63867 8.05828L5.43681 9.70929L5.83434 10.7345C5.8731 10.8377 6.0235 10.8377 6.06226 10.7345L6.4598 9.70929L6.25793 8.05828L6.68917 7.42803C6.76945 7.29303 6.75299 7.12025 6.63979 7.00066Z"/>
    </symbol>

    <symbol id="menu4" viewBox="0 0 15 15">
        <path fill-rule="evenodd" clip-rule="evenodd"
              d="M7.5 15C11.6421 15 15 11.6421 15 7.5C15 3.35787 11.6421 0 7.5 0C3.35787 0 0 3.35787 0 7.5C0 11.6421 3.35787 15 7.5 15ZM9.01823 4.09898C9.01823 4.93747 8.33849 5.6172 7.5 5.6172C6.66151 5.6172 5.98178 4.93747 5.98178 4.09898C5.98178 3.26048 6.66151 2.58075 7.5 2.58075C8.33849 2.58075 9.01823 3.26048 9.01823 4.09898ZM6.61942 6.95385H8.38055V12.4194H6.61942V6.95385Z"/>
    </symbol>

    <symbol id="menu5" viewBox="0 0 15 15">
        <path d="M11.7463 11.6527L10.2503 10.1566C10.0151 9.92147 9.70246 9.79195 9.36991 9.79195C9.03739 9.79195 8.72471 9.92147 8.48954 10.1566L7.96776 10.6784C7.68019 10.966 7.2277 11.0706 6.69347 10.9729C6.09868 10.8641 5.49139 10.5245 4.98347 10.0165C4.47552 9.50862 4.13591 8.90136 4.02716 8.30657C3.92946 7.77237 4.03405 7.31982 4.32162 7.03224L4.8434 6.5105C5.0786 6.27533 5.20809 5.96264 5.20809 5.63009C5.20809 5.29755 5.07857 4.98489 4.8434 4.74972L3.34739 3.25371C3.11222 3.01854 2.79956 2.88902 2.46699 2.88902C2.13444 2.88902 1.82178 3.01854 1.58662 3.25371L1.06484 3.77548C0.579389 4.2609 0.254985 4.88317 0.100562 5.625C-0.0422899 6.31145 -0.0329149 7.06755 0.128481 7.87224C0.448491 9.46755 1.35833 11.1088 2.62478 12.3753C3.89122 13.6417 5.53252 14.5516 7.12782 14.8715C7.55485 14.9572 7.96809 15 8.36462 15C8.71527 15 9.05292 14.9665 9.37507 14.8994C10.1169 14.745 10.7392 14.4206 11.2245 13.9352L11.7463 13.4134C12.2318 12.928 12.2318 12.1381 11.7463 11.6527Z"/>
        <path d="M13.7757 1.22435C12.9861 0.434824 11.9364 0 10.8198 0C9.70325 0 8.65357 0.434824 7.86402 1.22438C7.21817 1.87023 6.80919 2.68843 6.68134 3.59045C6.56643 4.40118 6.69552 5.24174 7.04509 5.97777L6.49003 7.95636C6.44617 8.1126 6.49009 8.28038 6.60484 8.39511C6.69021 8.48048 6.80488 8.52665 6.92233 8.52665C6.96279 8.52665 7.00357 8.52117 7.04359 8.50995L9.02221 7.9549C9.75827 8.30452 10.5987 8.43367 11.4095 8.31868C12.3116 8.19082 13.1298 7.78184 13.7756 7.13602C14.5652 6.3465 15 5.29676 15 4.18017C15 3.06363 14.5652 2.01387 13.7757 1.22435ZM9.2318 4.62076C8.98008 4.62076 8.7937 4.41504 8.7828 4.17176C8.77193 3.92927 8.99693 3.72276 9.2318 3.72276C9.48352 3.72276 9.66991 3.92848 9.68081 4.17176C9.69164 4.41425 9.46667 4.62076 9.2318 4.62076ZM10.8282 4.62076C10.5765 4.62076 10.3901 4.41504 10.3792 4.17176C10.3684 3.92927 10.5934 3.72276 10.8282 3.72276C11.08 3.72276 11.2664 3.92848 11.2772 4.17176C11.2881 4.41425 11.0631 4.62076 10.8282 4.62076ZM12.4247 4.62076C12.173 4.62076 11.9866 4.41504 11.9757 4.17176C11.9648 3.92927 12.1898 3.72276 12.4247 3.72276C12.6764 3.72276 12.8628 3.92848 12.8737 4.17176C12.8846 4.41425 12.6595 4.62076 12.4247 4.62076Z"/>
    </symbol>

</svg>